999
"DXF R12 Output" (www.mydxf.blogspot.com)
 0 
SECTION
 2 
HEADER
 9 
$ACADVER
 1 
AC1009
 9 
$EXTMIN
 10 
 0 
 20 
 0 
 9 
$EXTMAX
 10 
 8.5 
 20 
 11 
 0 
ENDSEC
 0 
SECTION
 2 
ENTITIES
0
LINE
8
Layer 1
10
3.000000
20
1193.800000
11
-3.000000
21
1187.800000
0
LINE
8
Layer 1
10
0.000000
20
1195.800000
11
0.000000
21
1185.800000
0
LINE
8
Layer 1
10
8.000000
20
1186.800000
11
4.000000
21
1182.800000
0
LINE
8
Layer 1
10
6.000000
20
1188.800000
11
2.000000
21
1184.800000
0
LINE
8
Layer 1
10
4.000000
20
1190.800000
11
0.000000
21
1186.800000
0
LINE
8
Layer 1
10
3.000000
20
1193.800000
11
-3.000000
21
1187.800000
0
LINE
8
Layer 1
10
0.000000
20
1195.800000
11
0.000000
21
1185.800000
0
LINE
8
Layer 1
10
8.000000
20
1186.800000
11
4.000000
21
1182.800000
0
LINE
8
Layer 1
10
6.000000
20
1188.800000
11
2.000000
21
1184.800000
0
LINE
8
Layer 1
10
4.000000
20
1190.800000
11
0.000000
21
1186.800000
0
LINE
8
Layer 1
10
3.000000
20
1193.800000
11
-3.000000
21
1187.800000
0
LINE
8
Layer 1
10
0.000000
20
1195.800000
11
0.000000
21
1185.800000
0
LINE
8
Layer 1
10
8.000000
20
1186.800000
11
4.000000
21
1182.800000
0
LINE
8
Layer 1
10
6.000000
20
1188.800000
11
2.000000
21
1184.800000
0
LINE
8
Layer 1
10
4.000000
20
1190.800000
11
0.000000
21
1186.800000
0
LINE
8
1
10
432.914103
20
1190.798477
11
432.914103
21
1190.798477
0
LINE
8
1
10
432.912103
20
1190.798477
11
432.912103
21
1190.798477
0
LINE
8
1
10
432.912103
20
1190.798477
11
432.912103
21
1190.798477
0
LINE
8
1
10
432.912103
20
1190.798477
11
432.912103
21
1185.199901
0
LINE
8
1
10
432.912103
20
1185.199901
11
456.280074
21
1185.199901
0
LINE
8
1
10
456.280074
20
1185.199901
11
456.280074
21
1190.798477
0
LINE
8
1
10
456.280074
20
1190.798477
11
479.648044
21
1190.798477
0
LINE
8
1
10
479.648044
20
1190.798477
11
479.648044
21
1185.199901
0
LINE
8
1
10
479.648044
20
1185.199901
11
503.016015
21
1185.199901
0
LINE
8
1
10
503.016015
20
1185.199901
11
503.016015
21
1190.798477
0
LINE
8
1
10
503.016015
20
1190.798477
11
526.383985
21
1190.798477
0
LINE
8
1
10
526.383985
20
1190.798477
11
526.383985
21
1185.199901
0
LINE
8
1
10
526.383985
20
1185.199901
11
549.751956
21
1185.199901
0
LINE
8
1
10
549.751956
20
1185.199901
11
549.751956
21
1190.798477
0
LINE
8
1
10
549.751956
20
1190.798477
11
573.119926
21
1190.798477
0
LINE
8
1
10
573.119926
20
1190.798477
11
573.119926
21
1185.199901
0
LINE
8
1
10
573.119926
20
1185.199901
11
596.487897
21
1185.199901
0
LINE
8
1
10
596.487897
20
1185.199901
11
596.487897
21
1190.798477
0
LINE
8
1
10
596.487897
20
1190.798477
11
619.855868
21
1190.798477
0
LINE
8
1
10
619.855868
20
1190.798477
11
619.855868
21
1185.199901
0
LINE
8
1
10
619.855868
20
1185.199901
11
643.223838
21
1185.199901
0
LINE
8
1
10
643.223838
20
1185.199901
11
643.223838
21
1190.798477
0
LINE
8
1
10
643.223838
20
1190.798477
11
666.591809
21
1190.798477
0
LINE
8
1
10
666.591809
20
1190.798477
11
666.591809
21
1185.199901
0
LINE
8
1
10
666.591809
20
1185.199901
11
689.959779
21
1185.199901
0
LINE
8
1
10
689.959779
20
1185.199901
11
689.959779
21
1190.798477
0
LINE
8
1
10
689.959779
20
1190.798477
11
713.327750
21
1190.798477
0
LINE
8
1
10
713.327750
20
1190.798477
11
713.327750
21
1185.199901
0
LINE
8
1
10
713.327750
20
1185.199901
11
736.695720
21
1185.199901
0
LINE
8
1
10
736.695720
20
1185.199901
11
736.695720
21
1190.798477
0
LINE
8
1
10
736.695720
20
1190.798477
11
760.063691
21
1190.798477
0
LINE
8
1
10
760.063691
20
1190.798477
11
760.063691
21
1185.199901
0
LINE
8
1
10
760.063691
20
1185.199901
11
783.431661
21
1185.199901
0
LINE
8
1
10
783.431661
20
1185.199901
11
783.431661
21
1190.798477
0
LINE
8
1
10
783.431661
20
1190.798477
11
812.400854
21
1190.798477
0
LINE
8
1
10
812.400854
20
1190.798477
11
812.400854
21
1161.831930
0
LINE
8
1
10
812.400854
20
1161.831930
11
806.799632
21
1161.831930
0
LINE
8
1
10
806.799632
20
1161.831930
11
806.799632
21
1138.462637
0
LINE
8
1
10
806.799632
20
1138.462637
11
812.400854
21
1138.462637
0
LINE
8
1
10
812.400854
20
1138.462637
11
812.400854
21
1115.094666
0
LINE
8
1
10
812.400854
20
1115.094666
11
806.799632
21
1115.094666
0
LINE
8
1
10
806.799632
20
1115.094666
11
806.799632
21
1091.726696
0
LINE
8
1
10
806.799632
20
1091.726696
11
812.400854
21
1091.726696
0
LINE
8
1
10
812.400854
20
1091.726696
11
812.400854
21
1068.358725
0
LINE
8
1
10
812.400854
20
1068.358725
11
806.799632
21
1068.358725
0
LINE
8
1
10
806.799632
20
1068.358725
11
806.799632
21
1044.990754
0
LINE
8
1
10
806.799632
20
1044.990754
11
812.400854
21
1044.990754
0
LINE
8
1
10
812.400854
20
1044.990754
11
812.400854
21
1021.622784
0
LINE
8
1
10
812.400854
20
1021.622784
11
806.799632
21
1021.622784
0
LINE
8
1
10
806.799632
20
1021.622784
11
806.799632
21
998.254813
0
LINE
8
1
10
806.799632
20
998.254813
11
812.400854
21
998.254813
0
LINE
8
1
10
812.400854
20
998.254813
11
812.400854
21
974.886843
0
LINE
8
1
10
812.400854
20
974.886843
11
806.799632
21
974.886843
0
LINE
8
1
10
806.799632
20
974.886843
11
806.799632
21
951.518872
0
LINE
8
1
10
806.799632
20
951.518872
11
812.400854
21
951.518872
0
LINE
8
1
10
812.400854
20
951.518872
11
812.400854
21
928.150902
0
LINE
8
1
10
812.400854
20
928.150902
11
806.799632
21
928.150902
0
LINE
8
1
10
806.799632
20
928.150902
11
806.799632
21
904.782984
0
LINE
8
1
10
806.799632
20
904.782984
11
812.400854
21
904.782984
0
LINE
8
1
10
812.400854
20
904.782984
11
812.400854
21
881.415013
0
LINE
8
1
10
812.400854
20
881.415013
11
806.799632
21
881.415013
0
LINE
8
1
10
806.799632
20
881.415013
11
806.799632
21
858.046990
0
LINE
8
1
10
806.799632
20
858.046990
11
812.400854
21
858.046990
0
LINE
8
1
10
812.400854
20
858.046990
11
812.400854
21
834.679019
0
LINE
8
1
10
812.400854
20
834.679019
11
806.799632
21
834.679019
0
LINE
8
1
10
806.799632
20
834.679019
11
806.799632
21
811.311049
0
LINE
8
1
10
806.799632
20
811.311049
11
812.400854
21
811.311049
0
LINE
8
1
10
812.400854
20
811.311049
11
812.400854
21
787.943078
0
LINE
8
1
10
812.400854
20
787.943078
11
806.799632
21
787.943078
0
LINE
8
1
10
806.799632
20
787.943078
11
806.799632
21
764.575108
0
LINE
8
1
10
806.799632
20
764.575108
11
812.400854
21
764.575108
0
LINE
8
1
10
812.400854
20
764.575108
11
812.400854
21
741.207137
0
LINE
8
1
10
812.400854
20
741.207137
11
806.799632
21
741.207137
0
LINE
8
1
10
806.799632
20
741.207137
11
806.799632
21
717.839167
0
LINE
8
1
10
806.799632
20
717.839167
11
812.400854
21
717.839167
0
LINE
8
1
10
812.400854
20
717.839167
11
812.400854
21
694.471196
0
LINE
8
1
10
812.400854
20
694.471196
11
806.799632
21
694.471196
0
LINE
8
1
10
806.799632
20
694.471196
11
806.799632
21
671.103225
0
LINE
8
1
10
806.799632
20
671.103225
11
812.400854
21
671.103225
0
LINE
8
1
10
812.400854
20
671.103225
11
812.400854
21
647.735255
0
LINE
8
1
10
812.400854
20
647.735255
11
806.799632
21
647.735255
0
LINE
8
1
10
806.799632
20
647.735255
11
806.799632
21
624.368607
0
LINE
8
1
10
806.799632
20
624.368607
11
812.400854
21
624.368607
0
LINE
8
1
10
812.400854
20
624.368607
11
812.400854
21
595.399415
0
LINE
8
1
10
812.400854
20
595.399415
11
783.431661
21
595.399415
0
LINE
8
1
10
783.431661
20
595.399415
11
783.431661
21
601.000637
0
LINE
8
1
10
783.431661
20
601.000637
11
760.063691
21
601.000637
0
LINE
8
1
10
760.063691
20
601.000637
11
760.063691
21
595.399415
0
LINE
8
1
10
760.063691
20
595.399415
11
736.695720
21
595.399415
0
LINE
8
1
10
736.695720
20
595.399415
11
736.695720
21
601.000637
0
LINE
8
1
10
736.695720
20
601.000637
11
713.327750
21
601.000637
0
LINE
8
1
10
713.327750
20
601.000637
11
713.327750
21
595.399415
0
LINE
8
1
10
713.327750
20
595.399415
11
689.959779
21
595.399415
0
LINE
8
1
10
689.959779
20
595.399415
11
689.959779
21
601.000637
0
LINE
8
1
10
689.959779
20
601.000637
11
666.591809
21
601.000637
0
LINE
8
1
10
666.591809
20
601.000637
11
666.591809
21
595.399415
0
LINE
8
1
10
666.591809
20
595.399415
11
643.223838
21
595.399415
0
LINE
8
1
10
643.223838
20
595.399415
11
643.223838
21
601.000637
0
LINE
8
1
10
643.223838
20
601.000637
11
619.855868
21
601.000637
0
LINE
8
1
10
619.855868
20
601.000637
11
619.855868
21
595.399415
0
LINE
8
1
10
619.855868
20
595.399415
11
596.487897
21
595.399415
0
LINE
8
1
10
596.487897
20
595.399415
11
596.487897
21
601.000637
0
LINE
8
1
10
596.487897
20
601.000637
11
573.119926
21
601.000637
0
LINE
8
1
10
573.119926
20
601.000637
11
573.119926
21
595.399415
0
LINE
8
1
10
573.119926
20
595.399415
11
549.751956
21
595.399415
0
LINE
8
1
10
549.751956
20
595.399415
11
549.751956
21
601.000637
0
LINE
8
1
10
549.751956
20
601.000637
11
526.383985
21
601.000637
0
LINE
8
1
10
526.383985
20
601.000637
11
526.383985
21
595.399415
0
LINE
8
1
10
526.383985
20
595.399415
11
503.016015
21
595.399415
0
LINE
8
1
10
503.016015
20
595.399415
11
503.016015
21
601.000637
0
LINE
8
1
10
503.016015
20
601.000637
11
479.648044
21
601.000637
0
LINE
8
1
10
479.648044
20
601.000637
11
479.648044
21
595.399415
0
LINE
8
1
10
479.648044
20
595.399415
11
456.280074
21
595.399415
0
LINE
8
1
10
456.280074
20
595.399415
11
456.280074
21
601.000637
0
LINE
8
1
10
456.280074
20
601.000637
11
432.912103
21
601.000637
0
LINE
8
1
10
432.912103
20
601.000637
11
432.912103
21
595.399415
0
LINE
8
1
10
432.912103
20
595.399415
11
409.544132
21
595.399415
0
LINE
8
1
10
409.544132
20
595.399415
11
409.544132
21
601.000637
0
LINE
8
1
10
409.544132
20
601.000637
11
386.176162
21
601.000637
0
LINE
8
1
10
386.176162
20
601.000637
11
386.176162
21
595.399415
0
LINE
8
1
10
386.176162
20
595.399415
11
362.808191
21
595.399415
0
LINE
8
1
10
362.808191
20
595.399415
11
362.808191
21
601.000637
0
LINE
8
1
10
362.808191
20
601.000637
11
339.440221
21
601.000637
0
LINE
8
1
10
339.440221
20
601.000637
11
339.440221
21
595.399415
0
LINE
8
1
10
339.440221
20
595.399415
11
316.072250
21
595.399415
0
LINE
8
1
10
316.072250
20
595.399415
11
316.072250
21
601.000637
0
LINE
8
1
10
316.072250
20
601.000637
11
292.704280
21
601.000637
0
LINE
8
1
10
292.704280
20
601.000637
11
292.704280
21
595.399415
0
LINE
8
1
10
292.704280
20
595.399415
11
269.336309
21
595.399415
0
LINE
8
1
10
269.336309
20
595.399415
11
269.336309
21
601.000637
0
LINE
8
1
10
269.336309
20
601.000637
11
245.968339
21
601.000637
0
LINE
8
1
10
245.968339
20
601.000637
11
245.968339
21
595.399415
0
LINE
8
1
10
245.968339
20
595.399415
11
216.999146
21
595.399415
0
LINE
8
1
10
216.999146
20
595.399415
11
216.999146
21
624.368607
0
LINE
8
1
10
216.999146
20
624.368607
11
222.600368
21
624.368607
0
LINE
8
1
10
222.600368
20
624.368607
11
222.600368
21
647.735255
0
LINE
8
1
10
222.600368
20
647.735255
11
216.999146
21
647.735255
0
LINE
8
1
10
216.999146
20
647.735255
11
216.999146
21
671.103225
0
LINE
8
1
10
216.999146
20
671.103225
11
222.600368
21
671.103225
0
LINE
8
1
10
222.600368
20
671.103225
11
222.600368
21
694.471196
0
LINE
8
1
10
222.600368
20
694.471196
11
216.999146
21
694.471196
0
LINE
8
1
10
216.999146
20
694.471196
11
216.999146
21
717.839167
0
LINE
8
1
10
216.999146
20
717.839167
11
222.600368
21
717.839167
0
LINE
8
1
10
222.600368
20
717.839167
11
222.600368
21
741.207137
0
LINE
8
1
10
222.600368
20
741.207137
11
216.999146
21
741.207137
0
LINE
8
1
10
216.999146
20
741.207137
11
216.999146
21
764.575108
0
LINE
8
1
10
216.999146
20
764.575108
11
222.600368
21
764.575108
0
LINE
8
1
10
222.600368
20
764.575108
11
222.600368
21
787.943078
0
LINE
8
1
10
222.600368
20
787.943078
11
216.999146
21
787.943078
0
LINE
8
1
10
216.999146
20
787.943078
11
216.999146
21
811.311049
0
LINE
8
1
10
216.999146
20
811.311049
11
222.600368
21
811.311049
0
LINE
8
1
10
222.600368
20
811.311049
11
222.600368
21
834.679019
0
LINE
8
1
10
222.600368
20
834.679019
11
216.999146
21
834.679019
0
LINE
8
1
10
216.999146
20
834.679019
11
216.999146
21
858.046990
0
LINE
8
1
10
216.999146
20
858.046990
11
222.600368
21
858.046990
0
LINE
8
1
10
222.600368
20
858.046990
11
222.600368
21
881.415013
0
LINE
8
1
10
222.600368
20
881.415013
11
216.999146
21
881.415013
0
LINE
8
1
10
216.999146
20
881.415013
11
216.999146
21
904.782984
0
LINE
8
1
10
216.999146
20
904.782984
11
222.600368
21
904.782984
0
LINE
8
1
10
222.600368
20
904.782984
11
222.600368
21
928.150902
0
LINE
8
1
10
222.600368
20
928.150902
11
216.999146
21
928.150902
0
LINE
8
1
10
216.999146
20
928.150902
11
216.999146
21
951.518872
0
LINE
8
1
10
216.999146
20
951.518872
11
222.600368
21
951.518872
0
LINE
8
1
10
222.600368
20
951.518872
11
222.600368
21
974.886843
0
LINE
8
1
10
222.600368
20
974.886843
11
216.999146
21
974.886843
0
LINE
8
1
10
216.999146
20
974.886843
11
216.999146
21
998.254813
0
LINE
8
1
10
216.999146
20
998.254813
11
222.600368
21
998.254813
0
LINE
8
1
10
222.600368
20
998.254813
11
222.600368
21
1021.622784
0
LINE
8
1
10
222.600368
20
1021.622784
11
216.999146
21
1021.622784
0
LINE
8
1
10
216.999146
20
1021.622784
11
216.999146
21
1044.990754
0
LINE
8
1
10
216.999146
20
1044.990754
11
222.600368
21
1044.990754
0
LINE
8
1
10
222.600368
20
1044.990754
11
222.600368
21
1068.358725
0
LINE
8
1
10
222.600368
20
1068.358725
11
216.999146
21
1068.358725
0
LINE
8
1
10
216.999146
20
1068.358725
11
216.999146
21
1091.726696
0
LINE
8
1
10
216.999146
20
1091.726696
11
222.600368
21
1091.726696
0
LINE
8
1
10
222.600368
20
1091.726696
11
222.600368
21
1115.094666
0
LINE
8
1
10
222.600368
20
1115.094666
11
216.999146
21
1115.094666
0
LINE
8
1
10
216.999146
20
1115.094666
11
216.999146
21
1138.462637
0
LINE
8
1
10
216.999146
20
1138.462637
11
222.600368
21
1138.462637
0
LINE
8
1
10
222.600368
20
1138.462637
11
222.600368
21
1161.831930
0
LINE
8
1
10
222.600368
20
1161.831930
11
216.999146
21
1161.831930
0
LINE
8
1
10
216.999146
20
1161.831930
11
216.999146
21
1190.798477
0
LINE
8
1
10
216.999146
20
1190.798477
11
245.968339
21
1190.798477
0
LINE
8
1
10
245.968339
20
1190.798477
11
245.968339
21
1185.199901
0
LINE
8
1
10
245.968339
20
1185.199901
11
269.336309
21
1185.199901
0
LINE
8
1
10
269.336309
20
1185.199901
11
269.336309
21
1190.798477
0
LINE
8
1
10
269.336309
20
1190.798477
11
292.704280
21
1190.798477
0
LINE
8
1
10
292.704280
20
1190.798477
11
292.704280
21
1185.199901
0
LINE
8
1
10
292.704280
20
1185.199901
11
316.072250
21
1185.199901
0
LINE
8
1
10
316.072250
20
1185.199901
11
316.072250
21
1190.798477
0
LINE
8
1
10
316.072250
20
1190.798477
11
339.440221
21
1190.798477
0
LINE
8
1
10
339.440221
20
1190.798477
11
339.440221
21
1185.199901
0
LINE
8
1
10
339.440221
20
1185.199901
11
362.808191
21
1185.199901
0
LINE
8
1
10
362.808191
20
1185.199901
11
362.808191
21
1190.798477
0
LINE
8
1
10
362.808191
20
1190.798477
11
386.176162
21
1190.798477
0
LINE
8
1
10
386.176162
20
1190.798477
11
386.176162
21
1185.199901
0
LINE
8
1
10
386.176162
20
1185.199901
11
409.544132
21
1185.199901
0
LINE
8
1
10
409.544132
20
1185.199901
11
409.544132
21
1190.798477
0
LINE
8
1
10
409.544132
20
1190.798477
11
432.912103
21
1190.798477
0
LINE
8
1
10
432.912103
20
1190.798477
11
432.912103
21
1190.798477
0
LINE
8
1
10
432.912103
20
1190.798477
11
432.912103
21
1190.798477
0
LINE
8
1
10
573.118926
20
5.598825
11
573.118926
21
5.598825
0
LINE
8
1
10
573.119926
20
5.600825
11
573.119926
21
5.600825
0
LINE
8
1
10
573.119926
20
5.600825
11
573.119926
21
5.600825
0
LINE
8
1
10
573.119926
20
5.600825
11
573.119926
21
5.600825
0
LINE
8
1
10
573.119926
20
5.600825
11
549.751956
21
5.600825
0
LINE
8
1
10
549.751956
20
5.600825
11
549.751956
21
0.002249
0
LINE
8
1
10
549.751956
20
0.002249
11
526.383985
21
0.002249
0
LINE
8
1
10
526.383985
20
0.002249
11
526.383985
21
5.600825
0
LINE
8
1
10
526.383985
20
5.600825
11
503.016015
21
5.600825
0
LINE
8
1
10
503.016015
20
5.600825
11
503.016015
21
0.002249
0
LINE
8
1
10
503.016015
20
0.002249
11
479.648044
21
0.002249
0
LINE
8
1
10
479.648044
20
0.002249
11
479.648044
21
5.600825
0
LINE
8
1
10
479.648044
20
5.600825
11
456.280074
21
5.600825
0
LINE
8
1
10
456.280074
20
5.600825
11
456.280074
21
0.002249
0
LINE
8
1
10
456.280074
20
0.002249
11
432.912103
21
0.002249
0
LINE
8
1
10
432.912103
20
0.002249
11
432.912103
21
5.600825
0
LINE
8
1
10
432.912103
20
5.600825
11
409.544132
21
5.600825
0
LINE
8
1
10
409.544132
20
5.600825
11
409.544132
21
0.002249
0
LINE
8
1
10
409.544132
20
0.002249
11
386.176162
21
0.002249
0
LINE
8
1
10
386.176162
20
0.002249
11
386.176162
21
5.600825
0
LINE
8
1
10
386.176162
20
5.600825
11
362.808191
21
5.600825
0
LINE
8
1
10
362.808191
20
5.600825
11
362.808191
21
0.002249
0
LINE
8
1
10
362.808191
20
0.002249
11
339.440221
21
0.002249
0
LINE
8
1
10
339.440221
20
0.002249
11
339.440221
21
5.600825
0
LINE
8
1
10
339.440221
20
5.600825
11
316.072250
21
5.600825
0
LINE
8
1
10
316.072250
20
5.600825
11
316.072250
21
0.002249
0
LINE
8
1
10
316.072250
20
0.002249
11
292.704280
21
0.002249
0
LINE
8
1
10
292.704280
20
0.002249
11
292.704280
21
5.600825
0
LINE
8
1
10
292.704280
20
5.600825
11
269.336309
21
5.600825
0
LINE
8
1
10
269.336309
20
5.600825
11
269.336309
21
0.002249
0
LINE
8
1
10
269.336309
20
0.002249
11
245.968339
21
0.002249
0
LINE
8
1
10
245.968339
20
0.002249
11
245.968339
21
5.600825
0
LINE
8
1
10
245.968339
20
5.600825
11
216.999146
21
5.600825
0
LINE
8
1
10
216.999146
20
5.600825
11
216.999146
21
25.074134
0
LINE
8
1
10
216.999146
20
25.074134
11
222.600368
21
25.074134
0
LINE
8
1
10
222.600368
20
25.074134
11
222.600368
21
44.547442
0
LINE
8
1
10
222.600368
20
44.547442
11
216.999146
21
44.547442
0
LINE
8
1
10
216.999146
20
44.547442
11
216.999146
21
64.020751
0
LINE
8
1
10
216.999146
20
64.020751
11
222.600368
21
64.020751
0
LINE
8
1
10
222.600368
20
64.020751
11
222.600368
21
83.494060
0
LINE
8
1
10
222.600368
20
83.494060
11
216.999146
21
83.494060
0
LINE
8
1
10
216.999146
20
83.494060
11
216.999146
21
102.967369
0
LINE
8
1
10
216.999146
20
102.967369
11
222.600368
21
102.967369
0
LINE
8
1
10
222.600368
20
102.967369
11
222.600368
21
122.440678
0
LINE
8
1
10
222.600368
20
122.440678
11
216.999146
21
122.440678
0
LINE
8
1
10
216.999146
20
122.440678
11
216.999146
21
141.913986
0
LINE
8
1
10
216.999146
20
141.913986
11
222.600368
21
141.913986
0
LINE
8
1
10
222.600368
20
141.913986
11
222.600368
21
161.387295
0
LINE
8
1
10
222.600368
20
161.387295
11
216.999146
21
161.387295
0
LINE
8
1
10
216.999146
20
161.387295
11
216.999146
21
180.861398
0
LINE
8
1
10
216.999146
20
180.861398
11
222.600368
21
180.861398
0
LINE
8
1
10
222.600368
20
180.861398
11
222.600368
21
200.334177
0
LINE
8
1
10
222.600368
20
200.334177
11
216.999146
21
200.334177
0
LINE
8
1
10
216.999146
20
200.334177
11
216.999146
21
219.808280
0
LINE
8
1
10
216.999146
20
219.808280
11
222.600368
21
219.808280
0
LINE
8
1
10
222.600368
20
219.808280
11
222.600368
21
239.281324
0
LINE
8
1
10
222.600368
20
239.281324
11
216.999146
21
239.281324
0
LINE
8
1
10
216.999146
20
239.281324
11
216.999146
21
258.754104
0
LINE
8
1
10
216.999146
20
258.754104
11
222.600368
21
258.754104
0
LINE
8
1
10
222.600368
20
258.754104
11
222.600368
21
278.228206
0
LINE
8
1
10
222.600368
20
278.228206
11
216.999146
21
278.228206
0
LINE
8
1
10
216.999146
20
278.228206
11
216.999146
21
297.701251
0
LINE
8
1
10
216.999146
20
297.701251
11
812.400854
21
297.701251
0
LINE
8
1
10
812.400854
20
297.701251
11
812.400854
21
278.228206
0
LINE
8
1
10
812.400854
20
278.228206
11
806.799632
21
278.228206
0
LINE
8
1
10
806.799632
20
278.228206
11
806.799632
21
258.754104
0
LINE
8
1
10
806.799632
20
258.754104
11
812.400854
21
258.754104
0
LINE
8
1
10
812.400854
20
258.754104
11
812.400854
21
239.281324
0
LINE
8
1
10
812.400854
20
239.281324
11
806.799632
21
239.281324
0
LINE
8
1
10
806.799632
20
239.281324
11
806.799632
21
219.808280
0
LINE
8
1
10
806.799632
20
219.808280
11
812.400854
21
219.808280
0
LINE
8
1
10
812.400854
20
219.808280
11
812.400854
21
200.334177
0
LINE
8
1
10
812.400854
20
200.334177
11
806.799632
21
200.334177
0
LINE
8
1
10
806.799632
20
200.334177
11
806.799632
21
180.861398
0
LINE
8
1
10
806.799632
20
180.861398
11
812.400854
21
180.861398
0
LINE
8
1
10
812.400854
20
180.861398
11
812.400854
21
161.387295
0
LINE
8
1
10
812.400854
20
161.387295
11
806.799632
21
161.387295
0
LINE
8
1
10
806.799632
20
161.387295
11
806.799632
21
141.913986
0
LINE
8
1
10
806.799632
20
141.913986
11
812.400854
21
141.913986
0
LINE
8
1
10
812.400854
20
141.913986
11
812.400854
21
122.440678
0
LINE
8
1
10
812.400854
20
122.440678
11
806.799632
21
122.440678
0
LINE
8
1
10
806.799632
20
122.440678
11
806.799632
21
102.967369
0
LINE
8
1
10
806.799632
20
102.967369
11
812.400854
21
102.967369
0
LINE
8
1
10
812.400854
20
102.967369
11
812.400854
21
83.494060
0
LINE
8
1
10
812.400854
20
83.494060
11
806.799632
21
83.494060
0
LINE
8
1
10
806.799632
20
83.494060
11
806.799632
21
64.020751
0
LINE
8
1
10
806.799632
20
64.020751
11
812.400854
21
64.020751
0
LINE
8
1
10
812.400854
20
64.020751
11
812.400854
21
44.547442
0
LINE
8
1
10
812.400854
20
44.547442
11
806.799632
21
44.547442
0
LINE
8
1
10
806.799632
20
44.547442
11
806.799632
21
25.074134
0
LINE
8
1
10
806.799632
20
25.074134
11
812.400854
21
25.074134
0
LINE
8
1
10
812.400854
20
25.074134
11
812.400854
21
5.600825
0
LINE
8
1
10
812.400854
20
5.600825
11
783.431661
21
5.600825
0
LINE
8
1
10
783.431661
20
5.600825
11
783.431661
21
0.002249
0
LINE
8
1
10
783.431661
20
0.002249
11
760.063691
21
0.002249
0
LINE
8
1
10
760.063691
20
0.002249
11
760.063691
21
5.600825
0
LINE
8
1
10
760.063691
20
5.600825
11
736.695720
21
5.600825
0
LINE
8
1
10
736.695720
20
5.600825
11
736.695720
21
0.002249
0
LINE
8
1
10
736.695720
20
0.002249
11
713.327750
21
0.002249
0
LINE
8
1
10
713.327750
20
0.002249
11
713.327750
21
5.600825
0
LINE
8
1
10
713.327750
20
5.600825
11
689.959779
21
5.600825
0
LINE
8
1
10
689.959779
20
5.600825
11
689.959779
21
0.002249
0
LINE
8
1
10
689.959779
20
0.002249
11
666.591809
21
0.002249
0
LINE
8
1
10
666.591809
20
0.002249
11
666.591809
21
5.600825
0
LINE
8
1
10
666.591809
20
5.600825
11
643.223838
21
5.600825
0
LINE
8
1
10
643.223838
20
5.600825
11
643.223838
21
0.002249
0
LINE
8
1
10
643.223838
20
0.002249
11
619.855868
21
0.002249
0
LINE
8
1
10
619.855868
20
0.002249
11
619.855868
21
5.600825
0
LINE
8
1
10
619.855868
20
5.600825
11
596.487897
21
5.600825
0
LINE
8
1
10
596.487897
20
5.600825
11
596.487897
21
0.002249
0
LINE
8
1
10
596.487897
20
0.002249
11
573.119926
21
0.002249
0
LINE
8
1
10
573.119926
20
0.002249
11
573.119926
21
5.600825
0
LINE
8
1
10
573.119926
20
5.600825
11
573.119926
21
5.600825
0
LINE
8
1
10
573.119926
20
5.600825
11
573.119926
21
5.600825
0
LINE
8
1
10
573.118926
20
303.298825
11
573.118926
21
303.298825
0
LINE
8
1
10
573.119926
20
303.298825
11
573.119926
21
303.298825
0
LINE
8
1
10
573.119926
20
303.298825
11
573.119926
21
303.298825
0
LINE
8
1
10
573.119926
20
303.298825
11
573.119926
21
303.298825
0
LINE
8
1
10
573.119926
20
303.298825
11
549.751956
21
303.298825
0
LINE
8
1
10
549.751956
20
303.298825
11
549.751956
21
297.700249
0
LINE
8
1
10
549.751956
20
297.700249
11
526.383985
21
297.700249
0
LINE
8
1
10
526.383985
20
297.700249
11
526.383985
21
303.298825
0
LINE
8
1
10
526.383985
20
303.298825
11
503.016015
21
303.298825
0
LINE
8
1
10
503.016015
20
303.298825
11
503.016015
21
297.700249
0
LINE
8
1
10
503.016015
20
297.700249
11
479.648044
21
297.700249
0
LINE
8
1
10
479.648044
20
297.700249
11
479.648044
21
303.298825
0
LINE
8
1
10
479.648044
20
303.298825
11
456.280074
21
303.298825
0
LINE
8
1
10
456.280074
20
303.298825
11
456.280074
21
297.700249
0
LINE
8
1
10
456.280074
20
297.700249
11
432.912103
21
297.700249
0
LINE
8
1
10
432.912103
20
297.700249
11
432.912103
21
303.298825
0
LINE
8
1
10
432.912103
20
303.298825
11
409.544132
21
303.298825
0
LINE
8
1
10
409.544132
20
303.298825
11
409.544132
21
297.700249
0
LINE
8
1
10
409.544132
20
297.700249
11
386.176162
21
297.700249
0
LINE
8
1
10
386.176162
20
297.700249
11
386.176162
21
303.298825
0
LINE
8
1
10
386.176162
20
303.298825
11
362.808191
21
303.298825
0
LINE
8
1
10
362.808191
20
303.298825
11
362.808191
21
297.700249
0
LINE
8
1
10
362.808191
20
297.700249
11
339.440221
21
297.700249
0
LINE
8
1
10
339.440221
20
297.700249
11
339.440221
21
303.298825
0
LINE
8
1
10
339.440221
20
303.298825
11
316.072250
21
303.298825
0
LINE
8
1
10
316.072250
20
303.298825
11
316.072250
21
297.700249
0
LINE
8
1
10
316.072250
20
297.700249
11
292.704280
21
297.700249
0
LINE
8
1
10
292.704280
20
297.700249
11
292.704280
21
303.298825
0
LINE
8
1
10
292.704280
20
303.298825
11
269.336309
21
303.298825
0
LINE
8
1
10
269.336309
20
303.298825
11
269.336309
21
297.700249
0
LINE
8
1
10
269.336309
20
297.700249
11
245.968339
21
297.700249
0
LINE
8
1
10
245.968339
20
297.700249
11
245.968339
21
303.298825
0
LINE
8
1
10
245.968339
20
303.298825
11
216.999146
21
303.298825
0
LINE
8
1
10
216.999146
20
303.298825
11
216.999146
21
322.772134
0
LINE
8
1
10
216.999146
20
322.772134
11
222.600368
21
322.772134
0
LINE
8
1
10
222.600368
20
322.772134
11
222.600368
21
342.245442
0
LINE
8
1
10
222.600368
20
342.245442
11
216.999146
21
342.245442
0
LINE
8
1
10
216.999146
20
342.245442
11
216.999146
21
361.718751
0
LINE
8
1
10
216.999146
20
361.718751
11
222.600368
21
361.718751
0
LINE
8
1
10
222.600368
20
361.718751
11
222.600368
21
381.192060
0
LINE
8
1
10
222.600368
20
381.192060
11
216.999146
21
381.192060
0
LINE
8
1
10
216.999146
20
381.192060
11
216.999146
21
400.665369
0
LINE
8
1
10
216.999146
20
400.665369
11
222.600368
21
400.665369
0
LINE
8
1
10
222.600368
20
400.665369
11
222.600368
21
420.138678
0
LINE
8
1
10
222.600368
20
420.138678
11
216.999146
21
420.138678
0
LINE
8
1
10
216.999146
20
420.138678
11
216.999146
21
439.611986
0
LINE
8
1
10
216.999146
20
439.611986
11
222.600368
21
439.611986
0
LINE
8
1
10
222.600368
20
439.611986
11
222.600368
21
459.085295
0
LINE
8
1
10
222.600368
20
459.085295
11
216.999146
21
459.085295
0
LINE
8
1
10
216.999146
20
459.085295
11
216.999146
21
478.559398
0
LINE
8
1
10
216.999146
20
478.559398
11
222.600368
21
478.559398
0
LINE
8
1
10
222.600368
20
478.559398
11
222.600368
21
498.032177
0
LINE
8
1
10
222.600368
20
498.032177
11
216.999146
21
498.032177
0
LINE
8
1
10
216.999146
20
498.032177
11
216.999146
21
517.506280
0
LINE
8
1
10
216.999146
20
517.506280
11
222.600368
21
517.506280
0
LINE
8
1
10
222.600368
20
517.506280
11
222.600368
21
536.979324
0
LINE
8
1
10
222.600368
20
536.979324
11
216.999146
21
536.979324
0
LINE
8
1
10
216.999146
20
536.979324
11
216.999146
21
556.452104
0
LINE
8
1
10
216.999146
20
556.452104
11
222.600368
21
556.452104
0
LINE
8
1
10
222.600368
20
556.452104
11
222.600368
21
575.926206
0
LINE
8
1
10
222.600368
20
575.926206
11
216.999146
21
575.926206
0
LINE
8
1
10
216.999146
20
575.926206
11
216.999146
21
595.399251
0
LINE
8
1
10
216.999146
20
595.399251
11
812.400854
21
595.399251
0
LINE
8
1
10
812.400854
20
595.399251
11
812.400854
21
575.926206
0
LINE
8
1
10
812.400854
20
575.926206
11
806.799632
21
575.926206
0
LINE
8
1
10
806.799632
20
575.926206
11
806.799632
21
556.452104
0
LINE
8
1
10
806.799632
20
556.452104
11
812.400854
21
556.452104
0
LINE
8
1
10
812.400854
20
556.452104
11
812.400854
21
536.979324
0
LINE
8
1
10
812.400854
20
536.979324
11
806.799632
21
536.979324
0
LINE
8
1
10
806.799632
20
536.979324
11
806.799632
21
517.506280
0
LINE
8
1
10
806.799632
20
517.506280
11
812.400854
21
517.506280
0
LINE
8
1
10
812.400854
20
517.506280
11
812.400854
21
498.032177
0
LINE
8
1
10
812.400854
20
498.032177
11
806.799632
21
498.032177
0
LINE
8
1
10
806.799632
20
498.032177
11
806.799632
21
478.559398
0
LINE
8
1
10
806.799632
20
478.559398
11
812.400854
21
478.559398
0
LINE
8
1
10
812.400854
20
478.559398
11
812.400854
21
459.085295
0
LINE
8
1
10
812.400854
20
459.085295
11
806.799632
21
459.085295
0
LINE
8
1
10
806.799632
20
459.085295
11
806.799632
21
439.611986
0
LINE
8
1
10
806.799632
20
439.611986
11
812.400854
21
439.611986
0
LINE
8
1
10
812.400854
20
439.611986
11
812.400854
21
420.138678
0
LINE
8
1
10
812.400854
20
420.138678
11
806.799632
21
420.138678
0
LINE
8
1
10
806.799632
20
420.138678
11
806.799632
21
400.665369
0
LINE
8
1
10
806.799632
20
400.665369
11
812.400854
21
400.665369
0
LINE
8
1
10
812.400854
20
400.665369
11
812.400854
21
381.192060
0
LINE
8
1
10
812.400854
20
381.192060
11
806.799632
21
381.192060
0
LINE
8
1
10
806.799632
20
381.192060
11
806.799632
21
361.718751
0
LINE
8
1
10
806.799632
20
361.718751
11
812.400854
21
361.718751
0
LINE
8
1
10
812.400854
20
361.718751
11
812.400854
21
342.245442
0
LINE
8
1
10
812.400854
20
342.245442
11
806.799632
21
342.245442
0
LINE
8
1
10
806.799632
20
342.245442
11
806.799632
21
322.772134
0
LINE
8
1
10
806.799632
20
322.772134
11
812.400854
21
322.772134
0
LINE
8
1
10
812.400854
20
322.772134
11
812.400854
21
303.298825
0
LINE
8
1
10
812.400854
20
303.298825
11
783.431661
21
303.298825
0
LINE
8
1
10
783.431661
20
303.298825
11
783.431661
21
297.700249
0
LINE
8
1
10
783.431661
20
297.700249
11
760.063691
21
297.700249
0
LINE
8
1
10
760.063691
20
297.700249
11
760.063691
21
303.298825
0
LINE
8
1
10
760.063691
20
303.298825
11
736.695720
21
303.298825
0
LINE
8
1
10
736.695720
20
303.298825
11
736.695720
21
297.700249
0
LINE
8
1
10
736.695720
20
297.700249
11
713.327750
21
297.700249
0
LINE
8
1
10
713.327750
20
297.700249
11
713.327750
21
303.298825
0
LINE
8
1
10
713.327750
20
303.298825
11
689.959779
21
303.298825
0
LINE
8
1
10
689.959779
20
303.298825
11
689.959779
21
297.700249
0
LINE
8
1
10
689.959779
20
297.700249
11
666.591809
21
297.700249
0
LINE
8
1
10
666.591809
20
297.700249
11
666.591809
21
303.298825
0
LINE
8
1
10
666.591809
20
303.298825
11
643.223838
21
303.298825
0
LINE
8
1
10
643.223838
20
303.298825
11
643.223838
21
297.700249
0
LINE
8
1
10
643.223838
20
297.700249
11
619.855868
21
297.700249
0
LINE
8
1
10
619.855868
20
297.700249
11
619.855868
21
303.298825
0
LINE
8
1
10
619.855868
20
303.298825
11
596.487897
21
303.298825
0
LINE
8
1
10
596.487897
20
303.298825
11
596.487897
21
297.700249
0
LINE
8
1
10
596.487897
20
297.700249
11
573.119926
21
297.700249
0
LINE
8
1
10
573.119926
20
297.700249
11
573.119926
21
303.298825
0
LINE
8
1
10
573.119926
20
303.298825
11
573.119926
21
303.298825
0
LINE
8
1
10
573.119926
20
303.298825
11
573.119926
21
303.298825
0
LINE
8
1
10
1461.023547
20
893.100164
11
1461.023547
21
893.100164
0
LINE
8
1
10
1461.023547
20
893.100164
11
1461.023547
21
893.100164
0
LINE
8
1
10
1461.023547
20
893.100164
11
1461.023547
21
893.100164
0
LINE
8
1
10
1461.023547
20
893.100164
11
1437.655577
21
893.100164
0
LINE
8
1
10
1437.655577
20
893.100164
11
1437.655577
21
898.700063
0
LINE
8
1
10
1437.655577
20
898.700063
11
1414.287606
21
898.700063
0
LINE
8
1
10
1414.287606
20
898.700063
11
1414.287606
21
893.100164
0
LINE
8
1
10
1414.287606
20
893.100164
11
1390.919636
21
893.100164
0
LINE
8
1
10
1390.919636
20
893.100164
11
1390.919636
21
898.700063
0
LINE
8
1
10
1390.919636
20
898.700063
11
1367.551665
21
898.700063
0
LINE
8
1
10
1367.551665
20
898.700063
11
1367.551665
21
893.100164
0
LINE
8
1
10
1367.551665
20
893.100164
11
1344.183694
21
893.100164
0
LINE
8
1
10
1344.183694
20
893.100164
11
1344.183694
21
898.700063
0
LINE
8
1
10
1344.183694
20
898.700063
11
1320.815724
21
898.700063
0
LINE
8
1
10
1320.815724
20
898.700063
11
1320.815724
21
893.100164
0
LINE
8
1
10
1320.815724
20
893.100164
11
1297.447753
21
893.100164
0
LINE
8
1
10
1297.447753
20
893.100164
11
1297.447753
21
898.700063
0
LINE
8
1
10
1297.447753
20
898.700063
11
1274.079783
21
898.700063
0
LINE
8
1
10
1274.079783
20
898.700063
11
1274.079783
21
893.100164
0
LINE
8
1
10
1274.079783
20
893.100164
11
1250.711812
21
893.100164
0
LINE
8
1
10
1250.711812
20
893.100164
11
1250.711812
21
898.700063
0
LINE
8
1
10
1250.711812
20
898.700063
11
1227.343842
21
898.700063
0
LINE
8
1
10
1227.343842
20
898.700063
11
1227.343842
21
893.100164
0
LINE
8
1
10
1227.343842
20
893.100164
11
1203.975871
21
893.100164
0
LINE
8
1
10
1203.975871
20
893.100164
11
1203.975871
21
898.700063
0
LINE
8
1
10
1203.975871
20
898.700063
11
1180.607901
21
898.700063
0
LINE
8
1
10
1180.607901
20
898.700063
11
1180.607901
21
893.100164
0
LINE
8
1
10
1180.607901
20
893.100164
11
1157.239930
21
893.100164
0
LINE
8
1
10
1157.239930
20
893.100164
11
1157.239930
21
898.700063
0
LINE
8
1
10
1157.239930
20
898.700063
11
1133.871959
21
898.700063
0
LINE
8
1
10
1133.871959
20
898.700063
11
1133.871959
21
893.100164
0
LINE
8
1
10
1133.871959
20
893.100164
11
1110.503989
21
893.100164
0
LINE
8
1
10
1110.503989
20
893.100164
11
1110.503989
21
898.700063
0
LINE
8
1
10
1110.503989
20
898.700063
11
1087.136018
21
898.700063
0
LINE
8
1
10
1087.136018
20
898.700063
11
1087.136018
21
893.100164
0
LINE
8
1
10
1087.136018
20
893.100164
11
1063.768048
21
893.100164
0
LINE
8
1
10
1063.768048
20
893.100164
11
1063.768048
21
898.700063
0
LINE
8
1
10
1063.768048
20
898.700063
11
1040.399998
21
898.700063
0
LINE
8
1
10
1040.399998
20
898.700063
11
1040.399998
21
918.173107
0
LINE
8
1
10
1040.399998
20
918.173107
11
1034.800001
21
918.173107
0
LINE
8
1
10
1034.800001
20
918.173107
11
1034.800001
21
937.647210
0
LINE
8
1
10
1034.800001
20
937.647210
11
1040.399998
21
937.647210
0
LINE
8
1
10
1040.399998
20
937.647210
11
1040.399998
21
957.119990
0
LINE
8
1
10
1040.399998
20
957.119990
11
1034.800001
21
957.119990
0
LINE
8
1
10
1034.800001
20
957.119990
11
1034.800001
21
976.593034
0
LINE
8
1
10
1034.800001
20
976.593034
11
1040.399998
21
976.593034
0
LINE
8
1
10
1040.399998
20
976.593034
11
1040.399998
21
996.067136
0
LINE
8
1
10
1040.399998
20
996.067136
11
1034.800001
21
996.067136
0
LINE
8
1
10
1034.800001
20
996.067136
11
1034.800001
21
1015.540022
0
LINE
8
1
10
1034.800001
20
1015.540022
11
1040.399998
21
1015.540022
0
LINE
8
1
10
1040.399998
20
1015.540022
11
1040.399998
21
1035.013013
0
LINE
8
1
10
1040.399998
20
1035.013013
11
1034.800001
21
1035.013013
0
LINE
8
1
10
1034.800001
20
1035.013013
11
1034.800001
21
1054.486983
0
LINE
8
1
10
1034.800001
20
1054.486983
11
1040.399998
21
1054.486983
0
LINE
8
1
10
1040.399998
20
1054.486983
11
1040.399998
21
1073.959842
0
LINE
8
1
10
1040.399998
20
1073.959842
11
1034.800001
21
1073.959842
0
LINE
8
1
10
1034.800001
20
1073.959842
11
1034.800001
21
1093.432887
0
LINE
8
1
10
1034.800001
20
1093.432887
11
1040.399998
21
1093.432887
0
LINE
8
1
10
1040.399998
20
1093.432887
11
1040.399998
21
1112.906989
0
LINE
8
1
10
1040.399998
20
1112.906989
11
1034.800001
21
1112.906989
0
LINE
8
1
10
1034.800001
20
1112.906989
11
1034.800001
21
1132.379769
0
LINE
8
1
10
1034.800001
20
1132.379769
11
1040.399998
21
1132.379769
0
LINE
8
1
10
1040.399998
20
1132.379769
11
1040.399998
21
1151.852813
0
LINE
8
1
10
1040.399998
20
1151.852813
11
1034.800001
21
1151.852813
0
LINE
8
1
10
1034.800001
20
1151.852813
11
1034.800001
21
1171.326916
0
LINE
8
1
10
1034.800001
20
1171.326916
11
1040.399998
21
1171.326916
0
LINE
8
1
10
1040.399998
20
1171.326916
11
1040.399998
21
1190.799695
0
LINE
8
1
10
1040.399998
20
1190.799695
11
1624.599341
21
1190.799695
0
LINE
8
1
10
1624.599341
20
1190.799695
11
1624.599341
21
1171.326916
0
LINE
8
1
10
1624.599341
20
1171.326916
11
1630.200563
21
1171.326916
0
LINE
8
1
10
1630.200563
20
1171.326916
11
1630.200563
21
1151.852813
0
LINE
8
1
10
1630.200563
20
1151.852813
11
1624.599341
21
1151.852813
0
LINE
8
1
10
1624.599341
20
1151.852813
11
1624.599341
21
1132.379769
0
LINE
8
1
10
1624.599341
20
1132.379769
11
1630.200563
21
1132.379769
0
LINE
8
1
10
1630.200563
20
1132.379769
11
1630.200563
21
1112.906989
0
LINE
8
1
10
1630.200563
20
1112.906989
11
1624.599341
21
1112.906989
0
LINE
8
1
10
1624.599341
20
1112.906989
11
1624.599341
21
1093.432887
0
LINE
8
1
10
1624.599341
20
1093.432887
11
1630.200563
21
1093.432887
0
LINE
8
1
10
1630.200563
20
1093.432887
11
1630.200563
21
1073.959842
0
LINE
8
1
10
1630.200563
20
1073.959842
11
1624.599341
21
1073.959842
0
LINE
8
1
10
1624.599341
20
1073.959842
11
1624.599341
21
1054.486983
0
LINE
8
1
10
1624.599341
20
1054.486983
11
1630.200563
21
1054.486983
0
LINE
8
1
10
1630.200563
20
1054.486983
11
1630.200563
21
1035.013013
0
LINE
8
1
10
1630.200563
20
1035.013013
11
1624.599341
21
1035.013013
0
LINE
8
1
10
1624.599341
20
1035.013013
11
1624.599341
21
1015.540022
0
LINE
8
1
10
1624.599341
20
1015.540022
11
1630.200563
21
1015.540022
0
LINE
8
1
10
1630.200563
20
1015.540022
11
1630.200563
21
996.067136
0
LINE
8
1
10
1630.200563
20
996.067136
11
1624.599341
21
996.067136
0
LINE
8
1
10
1624.599341
20
996.067136
11
1624.599341
21
976.593034
0
LINE
8
1
10
1624.599341
20
976.593034
11
1630.200563
21
976.593034
0
LINE
8
1
10
1630.200563
20
976.593034
11
1630.200563
21
957.119990
0
LINE
8
1
10
1630.200563
20
957.119990
11
1624.599341
21
957.119990
0
LINE
8
1
10
1624.599341
20
957.119990
11
1624.599341
21
937.647210
0
LINE
8
1
10
1624.599341
20
937.647210
11
1630.200563
21
937.647210
0
LINE
8
1
10
1630.200563
20
937.647210
11
1630.200563
21
918.173107
0
LINE
8
1
10
1630.200563
20
918.173107
11
1624.599341
21
918.173107
0
LINE
8
1
10
1624.599341
20
918.173107
11
1624.599341
21
898.700063
0
LINE
8
1
10
1624.599341
20
898.700063
11
1601.231371
21
898.700063
0
LINE
8
1
10
1601.231371
20
898.700063
11
1601.231371
21
893.100164
0
LINE
8
1
10
1601.231371
20
893.100164
11
1577.863400
21
893.100164
0
LINE
8
1
10
1577.863400
20
893.100164
11
1577.863400
21
898.700063
0
LINE
8
1
10
1577.863400
20
898.700063
11
1554.495429
21
898.700063
0
LINE
8
1
10
1554.495429
20
898.700063
11
1554.495429
21
893.100164
0
LINE
8
1
10
1554.495429
20
893.100164
11
1531.127459
21
893.100164
0
LINE
8
1
10
1531.127459
20
893.100164
11
1531.127459
21
898.700063
0
LINE
8
1
10
1531.127459
20
898.700063
11
1507.759488
21
898.700063
0
LINE
8
1
10
1507.759488
20
898.700063
11
1507.759488
21
893.100164
0
LINE
8
1
10
1507.759488
20
893.100164
11
1484.391518
21
893.100164
0
LINE
8
1
10
1484.391518
20
893.100164
11
1484.391518
21
898.700063
0
LINE
8
1
10
1484.391518
20
898.700063
11
1461.023547
21
898.700063
0
LINE
8
1
10
1461.023547
20
898.700063
11
1461.023547
21
893.100164
0
LINE
8
1
10
1461.023547
20
893.100164
11
1461.023547
21
893.100164
0
LINE
8
1
10
1461.023547
20
893.100164
11
1461.023547
21
893.100164
0
LINE
8
1
10
1461.023547
20
595.399164
11
1461.023547
21
595.399164
0
LINE
8
1
10
1461.023547
20
595.399164
11
1461.023547
21
595.399164
0
LINE
8
1
10
1461.023547
20
595.399164
11
1461.023547
21
595.399164
0
LINE
8
1
10
1461.023547
20
595.399164
11
1437.655577
21
595.399164
0
LINE
8
1
10
1437.655577
20
595.399164
11
1437.655577
21
600.999063
0
LINE
8
1
10
1437.655577
20
600.999063
11
1414.287606
21
600.999063
0
LINE
8
1
10
1414.287606
20
600.999063
11
1414.287606
21
595.399164
0
LINE
8
1
10
1414.287606
20
595.399164
11
1390.919636
21
595.399164
0
LINE
8
1
10
1390.919636
20
595.399164
11
1390.919636
21
600.999063
0
LINE
8
1
10
1390.919636
20
600.999063
11
1367.551665
21
600.999063
0
LINE
8
1
10
1367.551665
20
600.999063
11
1367.551665
21
595.399164
0
LINE
8
1
10
1367.551665
20
595.399164
11
1344.183694
21
595.399164
0
LINE
8
1
10
1344.183694
20
595.399164
11
1344.183694
21
600.999063
0
LINE
8
1
10
1344.183694
20
600.999063
11
1320.815724
21
600.999063
0
LINE
8
1
10
1320.815724
20
600.999063
11
1320.815724
21
595.399164
0
LINE
8
1
10
1320.815724
20
595.399164
11
1297.447753
21
595.399164
0
LINE
8
1
10
1297.447753
20
595.399164
11
1297.447753
21
600.999063
0
LINE
8
1
10
1297.447753
20
600.999063
11
1274.079783
21
600.999063
0
LINE
8
1
10
1274.079783
20
600.999063
11
1274.079783
21
595.399164
0
LINE
8
1
10
1274.079783
20
595.399164
11
1250.711812
21
595.399164
0
LINE
8
1
10
1250.711812
20
595.399164
11
1250.711812
21
600.999063
0
LINE
8
1
10
1250.711812
20
600.999063
11
1227.343842
21
600.999063
0
LINE
8
1
10
1227.343842
20
600.999063
11
1227.343842
21
595.399164
0
LINE
8
1
10
1227.343842
20
595.399164
11
1203.975871
21
595.399164
0
LINE
8
1
10
1203.975871
20
595.399164
11
1203.975871
21
600.999063
0
LINE
8
1
10
1203.975871
20
600.999063
11
1180.607901
21
600.999063
0
LINE
8
1
10
1180.607901
20
600.999063
11
1180.607901
21
595.399164
0
LINE
8
1
10
1180.607901
20
595.399164
11
1157.239930
21
595.399164
0
LINE
8
1
10
1157.239930
20
595.399164
11
1157.239930
21
600.999063
0
LINE
8
1
10
1157.239930
20
600.999063
11
1133.871959
21
600.999063
0
LINE
8
1
10
1133.871959
20
600.999063
11
1133.871959
21
595.399164
0
LINE
8
1
10
1133.871959
20
595.399164
11
1110.503989
21
595.399164
0
LINE
8
1
10
1110.503989
20
595.399164
11
1110.503989
21
600.999063
0
LINE
8
1
10
1110.503989
20
600.999063
11
1087.136018
21
600.999063
0
LINE
8
1
10
1087.136018
20
600.999063
11
1087.136018
21
595.399164
0
LINE
8
1
10
1087.136018
20
595.399164
11
1063.768048
21
595.399164
0
LINE
8
1
10
1063.768048
20
595.399164
11
1063.768048
21
600.999063
0
LINE
8
1
10
1063.768048
20
600.999063
11
1040.399998
21
600.999063
0
LINE
8
1
10
1040.399998
20
600.999063
11
1040.399998
21
620.472107
0
LINE
8
1
10
1040.399998
20
620.472107
11
1034.800001
21
620.472107
0
LINE
8
1
10
1034.800001
20
620.472107
11
1034.800001
21
639.946210
0
LINE
8
1
10
1034.800001
20
639.946210
11
1040.399998
21
639.946210
0
LINE
8
1
10
1040.399998
20
639.946210
11
1040.399998
21
659.418990
0
LINE
8
1
10
1040.399998
20
659.418990
11
1034.800001
21
659.418990
0
LINE
8
1
10
1034.800001
20
659.418990
11
1034.800001
21
678.892034
0
LINE
8
1
10
1034.800001
20
678.892034
11
1040.399998
21
678.892034
0
LINE
8
1
10
1040.399998
20
678.892034
11
1040.399998
21
698.366136
0
LINE
8
1
10
1040.399998
20
698.366136
11
1034.800001
21
698.366136
0
LINE
8
1
10
1034.800001
20
698.366136
11
1034.800001
21
717.839022
0
LINE
8
1
10
1034.800001
20
717.839022
11
1040.399998
21
717.839022
0
LINE
8
1
10
1040.399998
20
717.839022
11
1040.399998
21
737.312013
0
LINE
8
1
10
1040.399998
20
737.312013
11
1034.800001
21
737.312013
0
LINE
8
1
10
1034.800001
20
737.312013
11
1034.800001
21
756.785983
0
LINE
8
1
10
1034.800001
20
756.785983
11
1040.399998
21
756.785983
0
LINE
8
1
10
1040.399998
20
756.785983
11
1040.399998
21
776.258842
0
LINE
8
1
10
1040.399998
20
776.258842
11
1034.800001
21
776.258842
0
LINE
8
1
10
1034.800001
20
776.258842
11
1034.800001
21
795.731887
0
LINE
8
1
10
1034.800001
20
795.731887
11
1040.399998
21
795.731887
0
LINE
8
1
10
1040.399998
20
795.731887
11
1040.399998
21
815.205989
0
LINE
8
1
10
1040.399998
20
815.205989
11
1034.800001
21
815.205989
0
LINE
8
1
10
1034.800001
20
815.205989
11
1034.800001
21
834.678769
0
LINE
8
1
10
1034.800001
20
834.678769
11
1040.399998
21
834.678769
0
LINE
8
1
10
1040.399998
20
834.678769
11
1040.399998
21
854.151813
0
LINE
8
1
10
1040.399998
20
854.151813
11
1034.800001
21
854.151813
0
LINE
8
1
10
1034.800001
20
854.151813
11
1034.800001
21
873.625916
0
LINE
8
1
10
1034.800001
20
873.625916
11
1040.399998
21
873.625916
0
LINE
8
1
10
1040.399998
20
873.625916
11
1040.399998
21
893.098695
0
LINE
8
1
10
1040.399998
20
893.098695
11
1624.599341
21
893.098695
0
LINE
8
1
10
1624.599341
20
893.098695
11
1624.599341
21
873.625916
0
LINE
8
1
10
1624.599341
20
873.625916
11
1630.200563
21
873.625916
0
LINE
8
1
10
1630.200563
20
873.625916
11
1630.200563
21
854.151813
0
LINE
8
1
10
1630.200563
20
854.151813
11
1624.599341
21
854.151813
0
LINE
8
1
10
1624.599341
20
854.151813
11
1624.599341
21
834.678769
0
LINE
8
1
10
1624.599341
20
834.678769
11
1630.200563
21
834.678769
0
LINE
8
1
10
1630.200563
20
834.678769
11
1630.200563
21
815.205989
0
LINE
8
1
10
1630.200563
20
815.205989
11
1624.599341
21
815.205989
0
LINE
8
1
10
1624.599341
20
815.205989
11
1624.599341
21
795.731887
0
LINE
8
1
10
1624.599341
20
795.731887
11
1630.200563
21
795.731887
0
LINE
8
1
10
1630.200563
20
795.731887
11
1630.200563
21
776.258842
0
LINE
8
1
10
1630.200563
20
776.258842
11
1624.599341
21
776.258842
0
LINE
8
1
10
1624.599341
20
776.258842
11
1624.599341
21
756.785983
0
LINE
8
1
10
1624.599341
20
756.785983
11
1630.200563
21
756.785983
0
LINE
8
1
10
1630.200563
20
756.785983
11
1630.200563
21
737.312013
0
LINE
8
1
10
1630.200563
20
737.312013
11
1624.599341
21
737.312013
0
LINE
8
1
10
1624.599341
20
737.312013
11
1624.599341
21
717.839022
0
LINE
8
1
10
1624.599341
20
717.839022
11
1630.200563
21
717.839022
0
LINE
8
1
10
1630.200563
20
717.839022
11
1630.200563
21
698.366136
0
LINE
8
1
10
1630.200563
20
698.366136
11
1624.599341
21
698.366136
0
LINE
8
1
10
1624.599341
20
698.366136
11
1624.599341
21
678.892034
0
LINE
8
1
10
1624.599341
20
678.892034
11
1630.200563
21
678.892034
0
LINE
8
1
10
1630.200563
20
678.892034
11
1630.200563
21
659.418990
0
LINE
8
1
10
1630.200563
20
659.418990
11
1624.599341
21
659.418990
0
LINE
8
1
10
1624.599341
20
659.418990
11
1624.599341
21
639.946210
0
LINE
8
1
10
1624.599341
20
639.946210
11
1630.200563
21
639.946210
0
LINE
8
1
10
1630.200563
20
639.946210
11
1630.200563
21
620.472107
0
LINE
8
1
10
1630.200563
20
620.472107
11
1624.599341
21
620.472107
0
LINE
8
1
10
1624.599341
20
620.472107
11
1624.599341
21
600.999063
0
LINE
8
1
10
1624.599341
20
600.999063
11
1601.231371
21
600.999063
0
LINE
8
1
10
1601.231371
20
600.999063
11
1601.231371
21
595.399164
0
LINE
8
1
10
1601.231371
20
595.399164
11
1577.863400
21
595.399164
0
LINE
8
1
10
1577.863400
20
595.399164
11
1577.863400
21
600.999063
0
LINE
8
1
10
1577.863400
20
600.999063
11
1554.495429
21
600.999063
0
LINE
8
1
10
1554.495429
20
600.999063
11
1554.495429
21
595.399164
0
LINE
8
1
10
1554.495429
20
595.399164
11
1531.127459
21
595.399164
0
LINE
8
1
10
1531.127459
20
595.399164
11
1531.127459
21
600.999063
0
LINE
8
1
10
1531.127459
20
600.999063
11
1507.759488
21
600.999063
0
LINE
8
1
10
1507.759488
20
600.999063
11
1507.759488
21
595.399164
0
LINE
8
1
10
1507.759488
20
595.399164
11
1484.391518
21
595.399164
0
LINE
8
1
10
1484.391518
20
595.399164
11
1484.391518
21
600.999063
0
LINE
8
1
10
1484.391518
20
600.999063
11
1461.023547
21
600.999063
0
LINE
8
1
10
1461.023547
20
600.999063
11
1461.023547
21
595.399164
0
LINE
8
1
10
1461.023547
20
595.399164
11
1461.023547
21
595.399164
0
LINE
8
1
10
1461.023547
20
595.399164
11
1461.023547
21
595.399164
0
LINE
8
Layer 1
10
817.532310
20
595.397900
11
1630.332287
21
595.397900
0
LINE
8
Layer 1
10
0.017900
20
595.397900
11
812.817950
21
595.397900
0
LINE
8
Layer 1
10
-0.003100
20
-0.000900
11
812.267620
21
-0.000900
0
LINE
8
Layer 1
10
1034.798690
20
1190.797690
11
1034.798690
21
595.397900
0
LINE
8
Layer 1
10
812.399930
20
1190.665350
11
812.399930
21
595.397900
0
LINE
8
Layer 1
10
216.997500
20
595.397900
11
216.997500
21
-0.000900
0
LINE
8
Layer 1
10
216.997500
20
1190.797690
11
216.997500
21
595.398900
 0 
ENDSEC
 0 
EOF