999
Generated by Autodesk CAM - http://cam.autodesk.com
0
SECTION
2
HEADER
9
$ACADVER
1
AC1006
9
$ANGBASE
50
0
9
$ANGDIR
70
0
0
ENDSEC
0
SECTION
2
BLOCKS
0
ENDSEC
9
$EXTMIN
10
-297.7
20
0
30
0
9
$EXTMAX
10
297.7
20
596.4
30
164.35
0
SECTION
2
ENTITIES
0
LINE
8
1
62
3
10
-81.788
20
596.4
30
164.35
11
-81.788
21
596.4
31
164.35
0
LINE
8
1
62
3
10
-81.788
20
596.4
30
164.35
11
-81.788
21
596.4
31
149.35
0
LINE
8
1
62
2
10
-81.788
20
596.4
30
149.35
11
-81.788
21
596.4
31
149.35
0
LINE
8
1
62
1
10
-81.788
20
596.4
30
149.35
11
-81.788
21
590.8
31
149.35
0
LINE
8
1
62
1
10
-81.788
20
590.8
30
149.35
11
-58.42
21
590.8
31
149.35
0
LINE
8
1
62
1
10
-58.42
20
590.8
30
149.35
11
-58.42
21
596.4
31
149.35
0
LINE
8
1
62
1
10
-58.42
20
596.4
30
149.35
11
-35.052
21
596.4
31
149.35
0
LINE
8
1
62
1
10
-35.052
20
596.4
30
149.35
11
-35.052
21
590.8
31
149.35
0
LINE
8
1
62
1
10
-35.052
20
590.8
30
149.35
11
-11.684
21
590.8
31
149.35
0
LINE
8
1
62
1
10
-11.684
20
590.8
30
149.35
11
-11.684
21
596.4
31
149.35
0
LINE
8
1
62
1
10
-11.684
20
596.4
30
149.35
11
11.684
21
596.4
31
149.35
0
LINE
8
1
62
1
10
11.684
20
596.4
30
149.35
11
11.684
21
590.8
31
149.35
0
LINE
8
1
62
1
10
11.684
20
590.8
30
149.35
11
35.052
21
590.8
31
149.35
0
LINE
8
1
62
1
10
35.052
20
590.8
30
149.35
11
35.052
21
596.4
31
149.35
0
LINE
8
1
62
1
10
35.052
20
596.4
30
149.35
11
58.42
21
596.4
31
149.35
0
LINE
8
1
62
1
10
58.42
20
596.4
30
149.35
11
58.42
21
590.8
31
149.35
0
LINE
8
1
62
1
10
58.42
20
590.8
30
149.35
11
81.788
21
590.8
31
149.35
0
LINE
8
1
62
1
10
81.788
20
590.8
30
149.35
11
81.788
21
596.4
31
149.35
0
LINE
8
1
62
1
10
81.788
20
596.4
30
149.35
11
105.156
21
596.4
31
149.35
0
LINE
8
1
62
1
10
105.156
20
596.4
30
149.35
11
105.156
21
590.8
31
149.35
0
LINE
8
1
62
1
10
105.156
20
590.8
30
149.35
11
128.524
21
590.8
31
149.35
0
LINE
8
1
62
1
10
128.524
20
590.8
30
149.35
11
128.524
21
596.4
31
149.35
0
LINE
8
1
62
1
10
128.524
20
596.4
30
149.35
11
151.892
21
596.4
31
149.35
0
LINE
8
1
62
1
10
151.892
20
596.4
30
149.35
11
151.892
21
590.8
31
149.35
0
LINE
8
1
62
1
10
151.892
20
590.8
30
149.35
11
175.26
21
590.8
31
149.35
0
LINE
8
1
62
1
10
175.26
20
590.8
30
149.35
11
175.26
21
596.4
31
149.35
0
LINE
8
1
62
1
10
175.26
20
596.4
30
149.35
11
198.628
21
596.4
31
149.35
0
LINE
8
1
62
1
10
198.628
20
596.4
30
149.35
11
198.628
21
590.8
31
149.35
0
LINE
8
1
62
1
10
198.628
20
590.8
30
149.35
11
221.996
21
590.8
31
149.35
0
LINE
8
1
62
1
10
221.996
20
590.8
30
149.35
11
221.996
21
596.4
31
149.35
0
LINE
8
1
62
1
10
221.996
20
596.4
30
149.35
11
245.364
21
596.4
31
149.35
0
LINE
8
1
62
1
10
245.364
20
596.4
30
149.35
11
245.364
21
590.8
31
149.35
0
LINE
8
1
62
1
10
245.364
20
590.8
30
149.35
11
268.732
21
590.8
31
149.35
0
LINE
8
1
62
1
10
268.732
20
590.8
30
149.35
11
268.732
21
596.4
31
149.35
0
LINE
8
1
62
1
10
268.732
20
596.4
30
149.35
11
297.7
21
596.4
31
149.35
0
LINE
8
1
62
1
10
297.7
20
596.4
30
149.35
11
297.7
21
567.432
31
149.35
0
LINE
8
1
62
1
10
297.7
20
567.432
30
149.35
11
292.1
21
567.432
31
149.35
0
LINE
8
1
62
1
10
292.1
20
567.432
30
149.35
11
292.1
21
544.064
31
149.35
0
LINE
8
1
62
1
10
292.1
20
544.064
30
149.35
11
297.7
21
544.064
31
149.35
0
LINE
8
1
62
1
10
297.7
20
544.064
30
149.35
11
297.7
21
520.696
31
149.35
0
LINE
8
1
62
1
10
297.7
20
520.696
30
149.35
11
292.1
21
520.696
31
149.35
0
LINE
8
1
62
1
10
292.1
20
520.696
30
149.35
11
292.1
21
497.328
31
149.35
0
LINE
8
1
62
1
10
292.1
20
497.328
30
149.35
11
297.7
21
497.328
31
149.35
0
LINE
8
1
62
1
10
297.7
20
497.328
30
149.35
11
297.7
21
473.96
31
149.35
0
LINE
8
1
62
1
10
297.7
20
473.96
30
149.35
11
292.1
21
473.96
31
149.35
0
LINE
8
1
62
1
10
292.1
20
473.96
30
149.35
11
292.1
21
450.592
31
149.35
0
LINE
8
1
62
1
10
292.1
20
450.592
30
149.35
11
297.7
21
450.592
31
149.35
0
LINE
8
1
62
1
10
297.7
20
450.592
30
149.35
11
297.7
21
427.224
31
149.35
0
LINE
8
1
62
1
10
297.7
20
427.224
30
149.35
11
292.1
21
427.224
31
149.35
0
LINE
8
1
62
1
10
292.1
20
427.224
30
149.35
11
292.1
21
403.856
31
149.35
0
LINE
8
1
62
1
10
292.1
20
403.856
30
149.35
11
297.7
21
403.856
31
149.35
0
LINE
8
1
62
1
10
297.7
20
403.856
30
149.35
11
297.7
21
380.488
31
149.35
0
LINE
8
1
62
1
10
297.7
20
380.488
30
149.35
11
292.1
21
380.488
31
149.35
0
LINE
8
1
62
1
10
292.1
20
380.488
30
149.35
11
292.1
21
357.12
31
149.35
0
LINE
8
1
62
1
10
292.1
20
357.12
30
149.35
11
297.7
21
357.12
31
149.35
0
LINE
8
1
62
1
10
297.7
20
357.12
30
149.35
11
297.7
21
333.752
31
149.35
0
LINE
8
1
62
1
10
297.7
20
333.752
30
149.35
11
292.1
21
333.752
31
149.35
0
LINE
8
1
62
1
10
292.1
20
333.752
30
149.35
11
292.1
21
310.384
31
149.35
0
LINE
8
1
62
1
10
292.1
20
310.384
30
149.35
11
297.7
21
310.384
31
149.35
0
LINE
8
1
62
1
10
297.7
20
310.384
30
149.35
11
297.7
21
287.016
31
149.35
0
LINE
8
1
62
1
10
297.7
20
287.016
30
149.35
11
292.1
21
287.016
31
149.35
0
LINE
8
1
62
1
10
292.1
20
287.016
30
149.35
11
292.1
21
263.648
31
149.35
0
LINE
8
1
62
1
10
292.1
20
263.648
30
149.35
11
297.7
21
263.648
31
149.35
0
LINE
8
1
62
1
10
297.7
20
263.648
30
149.35
11
297.7
21
240.28
31
149.35
0
LINE
8
1
62
1
10
297.7
20
240.28
30
149.35
11
292.1
21
240.28
31
149.35
0
LINE
8
1
62
1
10
292.1
20
240.28
30
149.35
11
292.1
21
216.912
31
149.35
0
LINE
8
1
62
1
10
292.1
20
216.912
30
149.35
11
297.7
21
216.912
31
149.35
0
LINE
8
1
62
1
10
297.7
20
216.912
30
149.35
11
297.7
21
193.544
31
149.35
0
LINE
8
1
62
1
10
297.7
20
193.544
30
149.35
11
292.1
21
193.544
31
149.35
0
LINE
8
1
62
1
10
292.1
20
193.544
30
149.35
11
292.1
21
170.176
31
149.35
0
LINE
8
1
62
1
10
292.1
20
170.176
30
149.35
11
297.7
21
170.176
31
149.35
0
LINE
8
1
62
1
10
297.7
20
170.176
30
149.35
11
297.7
21
146.808
31
149.35
0
LINE
8
1
62
1
10
297.7
20
146.808
30
149.35
11
292.1
21
146.808
31
149.35
0
LINE
8
1
62
1
10
292.1
20
146.808
30
149.35
11
292.1
21
123.44
31
149.35
0
LINE
8
1
62
1
10
292.1
20
123.44
30
149.35
11
297.7
21
123.44
31
149.35
0
LINE
8
1
62
1
10
297.7
20
123.44
30
149.35
11
297.7
21
100.072
31
149.35
0
LINE
8
1
62
1
10
297.7
20
100.072
30
149.35
11
292.1
21
100.072
31
149.35
0
LINE
8
1
62
1
10
292.1
20
100.072
30
149.35
11
292.1
21
76.704
31
149.35
0
LINE
8
1
62
1
10
292.1
20
76.704
30
149.35
11
297.7
21
76.704
31
149.35
0
LINE
8
1
62
1
10
297.7
20
76.704
30
149.35
11
297.7
21
53.336
31
149.35
0
LINE
8
1
62
1
10
297.7
20
53.336
30
149.35
11
292.1
21
53.336
31
149.35
0
LINE
8
1
62
1
10
292.1
20
53.336
30
149.35
11
292.1
21
29.968
31
149.35
0
LINE
8
1
62
1
10
292.1
20
29.968
30
149.35
11
297.7
21
29.968
31
149.35
0
LINE
8
1
62
1
10
297.7
20
29.968
30
149.35
11
297.7
21
1
31
149.35
0
LINE
8
1
62
1
10
297.7
20
1
30
149.35
11
268.732
21
1
31
149.35
0
LINE
8
1
62
1
10
268.732
20
1
30
149.35
11
268.732
21
6.6
31
149.35
0
LINE
8
1
62
1
10
268.732
20
6.6
30
149.35
11
245.364
21
6.6
31
149.35
0
LINE
8
1
62
1
10
245.364
20
6.6
30
149.35
11
245.364
21
1
31
149.35
0
LINE
8
1
62
1
10
245.364
20
1
30
149.35
11
221.996
21
1
31
149.35
0
LINE
8
1
62
1
10
221.996
20
1
30
149.35
11
221.996
21
6.6
31
149.35
0
LINE
8
1
62
1
10
221.996
20
6.6
30
149.35
11
198.628
21
6.6
31
149.35
0
LINE
8
1
62
1
10
198.628
20
6.6
30
149.35
11
198.628
21
1
31
149.35
0
LINE
8
1
62
1
10
198.628
20
1
30
149.35
11
175.26
21
1
31
149.35
0
LINE
8
1
62
1
10
175.26
20
1
30
149.35
11
175.26
21
6.6
31
149.35
0
LINE
8
1
62
1
10
175.26
20
6.6
30
149.35
11
151.892
21
6.6
31
149.35
0
LINE
8
1
62
1
10
151.892
20
6.6
30
149.35
11
151.892
21
1
31
149.35
0
LINE
8
1
62
1
10
151.892
20
1
30
149.35
11
128.524
21
1
31
149.35
0
LINE
8
1
62
1
10
128.524
20
1
30
149.35
11
128.524
21
6.6
31
149.35
0
LINE
8
1
62
1
10
128.524
20
6.6
30
149.35
11
105.156
21
6.6
31
149.35
0
LINE
8
1
62
1
10
105.156
20
6.6
30
149.35
11
105.156
21
1
31
149.35
0
LINE
8
1
62
1
10
105.156
20
1
30
149.35
11
81.788
21
1
31
149.35
0
LINE
8
1
62
1
10
81.788
20
1
30
149.35
11
81.788
21
6.6
31
149.35
0
LINE
8
1
62
1
10
81.788
20
6.6
30
149.35
11
58.42
21
6.6
31
149.35
0
LINE
8
1
62
1
10
58.42
20
6.6
30
149.35
11
58.42
21
1
31
149.35
0
LINE
8
1
62
1
10
58.42
20
1
30
149.35
11
35.052
21
1
31
149.35
0
LINE
8
1
62
1
10
35.052
20
1
30
149.35
11
35.052
21
6.6
31
149.35
0
LINE
8
1
62
1
10
35.052
20
6.6
30
149.35
11
11.684
21
6.6
31
149.35
0
LINE
8
1
62
1
10
11.684
20
6.6
30
149.35
11
11.684
21
1
31
149.35
0
LINE
8
1
62
1
10
11.684
20
1
30
149.35
11
-11.684
21
1
31
149.35
0
LINE
8
1
62
1
10
-11.684
20
1
30
149.35
11
-11.684
21
6.6
31
149.35
0
LINE
8
1
62
1
10
-11.684
20
6.6
30
149.35
11
-35.052
21
6.6
31
149.35
0
LINE
8
1
62
1
10
-35.052
20
6.6
30
149.35
11
-35.052
21
1
31
149.35
0
LINE
8
1
62
1
10
-35.052
20
1
30
149.35
11
-58.42
21
1
31
149.35
0
LINE
8
1
62
1
10
-58.42
20
1
30
149.35
11
-58.42
21
6.6
31
149.35
0
LINE
8
1
62
1
10
-58.42
20
6.6
30
149.35
11
-81.788
21
6.6
31
149.35
0
LINE
8
1
62
1
10
-81.788
20
6.6
30
149.35
11
-81.788
21
1
31
149.35
0
LINE
8
1
62
1
10
-81.788
20
1
30
149.35
11
-105.156
21
1
31
149.35
0
LINE
8
1
62
1
10
-105.156
20
1
30
149.35
11
-105.156
21
6.6
31
149.35
0
LINE
8
1
62
1
10
-105.156
20
6.6
30
149.35
11
-128.524
21
6.6
31
149.35
0
LINE
8
1
62
1
10
-128.524
20
6.6
30
149.35
11
-128.524
21
1
31
149.35
0
LINE
8
1
62
1
10
-128.524
20
1
30
149.35
11
-151.892
21
1
31
149.35
0
LINE
8
1
62
1
10
-151.892
20
1
30
149.35
11
-151.892
21
6.6
31
149.35
0
LINE
8
1
62
1
10
-151.892
20
6.6
30
149.35
11
-175.26
21
6.6
31
149.35
0
LINE
8
1
62
1
10
-175.26
20
6.6
30
149.35
11
-175.26
21
1
31
149.35
0
LINE
8
1
62
1
10
-175.26
20
1
30
149.35
11
-198.628
21
1
31
149.35
0
LINE
8
1
62
1
10
-198.628
20
1
30
149.35
11
-198.628
21
6.6
31
149.35
0
LINE
8
1
62
1
10
-198.628
20
6.6
30
149.35
11
-221.996
21
6.6
31
149.35
0
LINE
8
1
62
1
10
-221.996
20
6.6
30
149.35
11
-221.996
21
1
31
149.35
0
LINE
8
1
62
1
10
-221.996
20
1
30
149.35
11
-245.364
21
1
31
149.35
0
LINE
8
1
62
1
10
-245.364
20
1
30
149.35
11
-245.364
21
6.6
31
149.35
0
LINE
8
1
62
1
10
-245.364
20
6.6
30
149.35
11
-268.732
21
6.6
31
149.35
0
LINE
8
1
62
1
10
-268.732
20
6.6
30
149.35
11
-268.732
21
1
31
149.35
0
LINE
8
1
62
1
10
-268.732
20
1
30
149.35
11
-297.7
21
1
31
149.35
0
LINE
8
1
62
1
10
-297.7
20
1
30
149.35
11
-297.7
21
29.968
31
149.35
0
LINE
8
1
62
1
10
-297.7
20
29.968
30
149.35
11
-292.1
21
29.968
31
149.35
0
LINE
8
1
62
1
10
-292.1
20
29.968
30
149.35
11
-292.1
21
53.336
31
149.35
0
LINE
8
1
62
1
10
-292.1
20
53.336
30
149.35
11
-297.7
21
53.336
31
149.35
0
LINE
8
1
62
1
10
-297.7
20
53.336
30
149.35
11
-297.7
21
76.704
31
149.35
0
LINE
8
1
62
1
10
-297.7
20
76.704
30
149.35
11
-292.1
21
76.704
31
149.35
0
LINE
8
1
62
1
10
-292.1
20
76.704
30
149.35
11
-292.1
21
100.072
31
149.35
0
LINE
8
1
62
1
10
-292.1
20
100.072
30
149.35
11
-297.7
21
100.072
31
149.35
0
LINE
8
1
62
1
10
-297.7
20
100.072
30
149.35
11
-297.7
21
123.44
31
149.35
0
LINE
8
1
62
1
10
-297.7
20
123.44
30
149.35
11
-292.1
21
123.44
31
149.35
0
LINE
8
1
62
1
10
-292.1
20
123.44
30
149.35
11
-292.1
21
146.808
31
149.35
0
LINE
8
1
62
1
10
-292.1
20
146.808
30
149.35
11
-297.7
21
146.808
31
149.35
0
LINE
8
1
62
1
10
-297.7
20
146.808
30
149.35
11
-297.7
21
170.176
31
149.35
0
LINE
8
1
62
1
10
-297.7
20
170.176
30
149.35
11
-292.1
21
170.176
31
149.35
0
LINE
8
1
62
1
10
-292.1
20
170.176
30
149.35
11
-292.1
21
193.544
31
149.35
0
LINE
8
1
62
1
10
-292.1
20
193.544
30
149.35
11
-297.7
21
193.544
31
149.35
0
LINE
8
1
62
1
10
-297.7
20
193.544
30
149.35
11
-297.7
21
216.912
31
149.35
0
LINE
8
1
62
1
10
-297.7
20
216.912
30
149.35
11
-292.1
21
216.912
31
149.35
0
LINE
8
1
62
1
10
-292.1
20
216.912
30
149.35
11
-292.1
21
240.28
31
149.35
0
LINE
8
1
62
1
10
-292.1
20
240.28
30
149.35
11
-297.7
21
240.28
31
149.35
0
LINE
8
1
62
1
10
-297.7
20
240.28
30
149.35
11
-297.7
21
263.648
31
149.35
0
LINE
8
1
62
1
10
-297.7
20
263.648
30
149.35
11
-292.1
21
263.648
31
149.35
0
LINE
8
1
62
1
10
-292.1
20
263.648
30
149.35
11
-292.1
21
287.016
31
149.35
0
LINE
8
1
62
1
10
-292.1
20
287.016
30
149.35
11
-297.7
21
287.016
31
149.35
0
LINE
8
1
62
1
10
-297.7
20
287.016
30
149.35
11
-297.7
21
310.384
31
149.35
0
LINE
8
1
62
1
10
-297.7
20
310.384
30
149.35
11
-292.1
21
310.384
31
149.35
0
LINE
8
1
62
1
10
-292.1
20
310.384
30
149.35
11
-292.1
21
333.752
31
149.35
0
LINE
8
1
62
1
10
-292.1
20
333.752
30
149.35
11
-297.7
21
333.752
31
149.35
0
LINE
8
1
62
1
10
-297.7
20
333.752
30
149.35
11
-297.7
21
357.12
31
149.35
0
LINE
8
1
62
1
10
-297.7
20
357.12
30
149.35
11
-292.1
21
357.12
31
149.35
0
LINE
8
1
62
1
10
-292.1
20
357.12
30
149.35
11
-292.1
21
380.488
31
149.35
0
LINE
8
1
62
1
10
-292.1
20
380.488
30
149.35
11
-297.7
21
380.488
31
149.35
0
LINE
8
1
62
1
10
-297.7
20
380.488
30
149.35
11
-297.7
21
403.856
31
149.35
0
LINE
8
1
62
1
10
-297.7
20
403.856
30
149.35
11
-292.1
21
403.856
31
149.35
0
LINE
8
1
62
1
10
-292.1
20
403.856
30
149.35
11
-292.1
21
427.224
31
149.35
0
LINE
8
1
62
1
10
-292.1
20
427.224
30
149.35
11
-297.7
21
427.224
31
149.35
0
LINE
8
1
62
1
10
-297.7
20
427.224
30
149.35
11
-297.7
21
450.592
31
149.35
0
LINE
8
1
62
1
10
-297.7
20
450.592
30
149.35
11
-292.1
21
450.592
31
149.35
0
LINE
8
1
62
1
10
-292.1
20
450.592
30
149.35
11
-292.1
21
473.96
31
149.35
0
LINE
8
1
62
1
10
-292.1
20
473.96
30
149.35
11
-297.7
21
473.96
31
149.35
0
LINE
8
1
62
1
10
-297.7
20
473.96
30
149.35
11
-297.7
21
497.328
31
149.35
0
LINE
8
1
62
1
10
-297.7
20
497.328
30
149.35
11
-292.1
21
497.328
31
149.35
0
LINE
8
1
62
1
10
-292.1
20
497.328
30
149.35
11
-292.1
21
520.696
31
149.35
0
LINE
8
1
62
1
10
-292.1
20
520.696
30
149.35
11
-297.7
21
520.696
31
149.35
0
LINE
8
1
62
1
10
-297.7
20
520.696
30
149.35
11
-297.7
21
544.064
31
149.35
0
LINE
8
1
62
1
10
-297.7
20
544.064
30
149.35
11
-292.1
21
544.064
31
149.35
0
LINE
8
1
62
1
10
-292.1
20
544.064
30
149.35
11
-292.1
21
567.432
31
149.35
0
LINE
8
1
62
1
10
-292.1
20
567.432
30
149.35
11
-297.7
21
567.432
31
149.35
0
LINE
8
1
62
1
10
-297.7
20
567.432
30
149.35
11
-297.7
21
596.4
31
149.35
0
LINE
8
1
62
1
10
-297.7
20
596.4
30
149.35
11
-268.732
21
596.4
31
149.35
0
LINE
8
1
62
1
10
-268.732
20
596.4
30
149.35
11
-268.732
21
590.8
31
149.35
0
LINE
8
1
62
1
10
-268.732
20
590.8
30
149.35
11
-245.364
21
590.8
31
149.35
0
LINE
8
1
62
1
10
-245.364
20
590.8
30
149.35
11
-245.364
21
596.4
31
149.35
0
LINE
8
1
62
1
10
-245.364
20
596.4
30
149.35
11
-221.996
21
596.4
31
149.35
0
LINE
8
1
62
1
10
-221.996
20
596.4
30
149.35
11
-221.996
21
590.8
31
149.35
0
LINE
8
1
62
1
10
-221.996
20
590.8
30
149.35
11
-198.628
21
590.8
31
149.35
0
LINE
8
1
62
1
10
-198.628
20
590.8
30
149.35
11
-198.628
21
596.4
31
149.35
0
LINE
8
1
62
1
10
-198.628
20
596.4
30
149.35
11
-175.26
21
596.4
31
149.35
0
LINE
8
1
62
1
10
-175.26
20
596.4
30
149.35
11
-175.26
21
590.8
31
149.35
0
LINE
8
1
62
1
10
-175.26
20
590.8
30
149.35
11
-151.892
21
590.8
31
149.35
0
LINE
8
1
62
1
10
-151.892
20
590.8
30
149.35
11
-151.892
21
596.4
31
149.35
0
LINE
8
1
62
1
10
-151.892
20
596.4
30
149.35
11
-128.524
21
596.4
31
149.35
0
LINE
8
1
62
1
10
-128.524
20
596.4
30
149.35
11
-128.524
21
590.8
31
149.35
0
LINE
8
1
62
1
10
-128.524
20
590.8
30
149.35
11
-105.156
21
590.8
31
149.35
0
LINE
8
1
62
1
10
-105.156
20
590.8
30
149.35
11
-105.156
21
596.4
31
149.35
0
LINE
8
1
62
1
10
-105.156
20
596.4
30
149.35
11
-81.788
21
596.4
31
149.35
0
LINE
8
1
62
2
10
-81.788
20
596.4
30
149.35
11
-81.788
21
596.4
31
149.35
0
LINE
8
1
62
3
10
-81.788
20
596.4
30
149.35
11
-81.788
21
596.4
31
164.35
0
ENDSEC
0
EOF
