999
Generated by Autodesk CAM - http://cam.autodesk.com
0
SECTION
2
HEADER
9
$ACADVER
1
AC1006
9
$ANGBASE
50
0
9
$ANGDIR
70
0
0
ENDSEC
0
SECTION
2
BLOCKS
0
ENDSEC
9
$EXTMIN
10
-297.7
20
-148.35
30
0
9
$EXTMAX
10
297.7
20
149.35
30
15
0
SECTION
2
ENTITIES
0
LINE
8
1
62
3
10
58.42
20
-142.751
30
15
11
58.42
21
-142.751
31
15
0
LINE
8
1
62
3
10
58.42
20
-142.751
30
15
11
58.42
21
-142.751
31
0
0
LINE
8
1
62
2
10
58.42
20
-142.751
30
0
11
58.42
21
-142.75
31
0
0
LINE
8
1
62
1
10
58.42
20
-142.75
30
0
11
58.42
21
-142.75
31
0
0
LINE
8
1
62
1
10
58.42
20
-142.75
30
0
11
35.052
21
-142.75
31
0
0
LINE
8
1
62
1
10
35.052
20
-142.75
30
0
11
35.052
21
-148.35
31
0
0
LINE
8
1
62
1
10
35.052
20
-148.35
30
0
11
11.684
21
-148.35
31
0
0
LINE
8
1
62
1
10
11.684
20
-148.35
30
0
11
11.684
21
-142.75
31
0
0
LINE
8
1
62
1
10
11.684
20
-142.75
30
0
11
-11.684
21
-142.75
31
0
0
LINE
8
1
62
1
10
-11.684
20
-142.75
30
0
11
-11.684
21
-148.35
31
0
0
LINE
8
1
62
1
10
-11.684
20
-148.35
30
0
11
-35.052
21
-148.35
31
0
0
LINE
8
1
62
1
10
-35.052
20
-148.35
30
0
11
-35.052
21
-142.75
31
0
0
LINE
8
1
62
1
10
-35.052
20
-142.75
30
0
11
-58.42
21
-142.75
31
0
0
LINE
8
1
62
1
10
-58.42
20
-142.75
30
0
11
-58.42
21
-148.35
31
0
0
LINE
8
1
62
1
10
-58.42
20
-148.35
30
0
11
-81.788
21
-148.35
31
0
0
LINE
8
1
62
1
10
-81.788
20
-148.35
30
0
11
-81.788
21
-142.75
31
0
0
LINE
8
1
62
1
10
-81.788
20
-142.75
30
0
11
-105.156
21
-142.75
31
0
0
LINE
8
1
62
1
10
-105.156
20
-142.75
30
0
11
-105.156
21
-148.35
31
0
0
LINE
8
1
62
1
10
-105.156
20
-148.35
30
0
11
-128.524
21
-148.35
31
0
0
LINE
8
1
62
1
10
-128.524
20
-148.35
30
0
11
-128.524
21
-142.75
31
0
0
LINE
8
1
62
1
10
-128.524
20
-142.75
30
0
11
-151.892
21
-142.75
31
0
0
LINE
8
1
62
1
10
-151.892
20
-142.75
30
0
11
-151.892
21
-148.35
31
0
0
LINE
8
1
62
1
10
-151.892
20
-148.35
30
0
11
-175.26
21
-148.35
31
0
0
LINE
8
1
62
1
10
-175.26
20
-148.35
30
0
11
-175.26
21
-142.75
31
0
0
LINE
8
1
62
1
10
-175.26
20
-142.75
30
0
11
-198.628
21
-142.75
31
0
0
LINE
8
1
62
1
10
-198.628
20
-142.75
30
0
11
-198.628
21
-148.35
31
0
0
LINE
8
1
62
1
10
-198.628
20
-148.35
30
0
11
-221.996
21
-148.35
31
0
0
LINE
8
1
62
1
10
-221.996
20
-148.35
30
0
11
-221.996
21
-142.75
31
0
0
LINE
8
1
62
1
10
-221.996
20
-142.75
30
0
11
-245.364
21
-142.75
31
0
0
LINE
8
1
62
1
10
-245.364
20
-142.75
30
0
11
-245.364
21
-148.35
31
0
0
LINE
8
1
62
1
10
-245.364
20
-148.35
30
0
11
-268.732
21
-148.35
31
0
0
LINE
8
1
62
1
10
-268.732
20
-148.35
30
0
11
-268.732
21
-142.75
31
0
0
LINE
8
1
62
1
10
-268.732
20
-142.75
30
0
11
-297.7
21
-142.75
31
0
0
LINE
8
1
62
1
10
-297.7
20
-142.75
30
0
11
-297.7
21
-123.277
31
0
0
LINE
8
1
62
1
10
-297.7
20
-123.277
30
0
11
-292.1
21
-123.277
31
0
0
LINE
8
1
62
1
10
-292.1
20
-123.277
30
0
11
-292.1
21
-103.803
31
0
0
LINE
8
1
62
1
10
-292.1
20
-103.803
30
0
11
-297.7
21
-103.803
31
0
0
LINE
8
1
62
1
10
-297.7
20
-103.803
30
0
11
-297.7
21
-84.33
31
0
0
LINE
8
1
62
1
10
-297.7
20
-84.33
30
0
11
-292.1
21
-84.33
31
0
0
LINE
8
1
62
1
10
-292.1
20
-84.33
30
0
11
-292.1
21
-64.857
31
0
0
LINE
8
1
62
1
10
-292.1
20
-64.857
30
0
11
-297.7
21
-64.857
31
0
0
LINE
8
1
62
1
10
-297.7
20
-64.857
30
0
11
-297.7
21
-45.383
31
0
0
LINE
8
1
62
1
10
-297.7
20
-45.383
30
0
11
-292.1
21
-45.383
31
0
0
LINE
8
1
62
1
10
-292.1
20
-45.383
30
0
11
-292.1
21
-25.91
31
0
0
LINE
8
1
62
1
10
-292.1
20
-25.91
30
0
11
-297.7
21
-25.91
31
0
0
LINE
8
1
62
1
10
-297.7
20
-25.91
30
0
11
-297.7
21
-6.437
31
0
0
LINE
8
1
62
1
10
-297.7
20
-6.437
30
0
11
-292.1
21
-6.437
31
0
0
LINE
8
1
62
1
10
-292.1
20
-6.437
30
0
11
-292.1
21
13.037
31
0
0
LINE
8
1
62
1
10
-292.1
20
13.037
30
0
11
-297.7
21
13.037
31
0
0
LINE
8
1
62
1
10
-297.7
20
13.037
30
0
11
-297.7
21
32.51
31
0
0
LINE
8
1
62
1
10
-297.7
20
32.51
30
0
11
-292.1
21
32.51
31
0
0
LINE
8
1
62
1
10
-292.1
20
32.51
30
0
11
-292.1
21
51.983
31
0
0
LINE
8
1
62
1
10
-292.1
20
51.983
30
0
11
-297.7
21
51.983
31
0
0
LINE
8
1
62
1
10
-297.7
20
51.983
30
0
11
-297.7
21
71.457
31
0
0
LINE
8
1
62
1
10
-297.7
20
71.457
30
0
11
-292.1
21
71.457
31
0
0
LINE
8
1
62
1
10
-292.1
20
71.457
30
0
11
-292.1
21
90.93
31
0
0
LINE
8
1
62
1
10
-292.1
20
90.93
30
0
11
-297.7
21
90.93
31
0
0
LINE
8
1
62
1
10
-297.7
20
90.93
30
0
11
-297.7
21
110.403
31
0
0
LINE
8
1
62
1
10
-297.7
20
110.403
30
0
11
-292.1
21
110.403
31
0
0
LINE
8
1
62
1
10
-292.1
20
110.403
30
0
11
-292.1
21
129.877
31
0
0
LINE
8
1
62
1
10
-292.1
20
129.877
30
0
11
-297.7
21
129.877
31
0
0
LINE
8
1
62
1
10
-297.7
20
129.877
30
0
11
-297.7
21
149.35
31
0
0
LINE
8
1
62
1
10
-297.7
20
149.35
30
0
11
297.7
21
149.35
31
0
0
LINE
8
1
62
1
10
297.7
20
149.35
30
0
11
297.7
21
129.877
31
0
0
LINE
8
1
62
1
10
297.7
20
129.877
30
0
11
292.1
21
129.877
31
0
0
LINE
8
1
62
1
10
292.1
20
129.877
30
0
11
292.1
21
110.403
31
0
0
LINE
8
1
62
1
10
292.1
20
110.403
30
0
11
297.7
21
110.403
31
0
0
LINE
8
1
62
1
10
297.7
20
110.403
30
0
11
297.7
21
90.93
31
0
0
LINE
8
1
62
1
10
297.7
20
90.93
30
0
11
292.1
21
90.93
31
0
0
LINE
8
1
62
1
10
292.1
20
90.93
30
0
11
292.1
21
71.457
31
0
0
LINE
8
1
62
1
10
292.1
20
71.457
30
0
11
297.7
21
71.457
31
0
0
LINE
8
1
62
1
10
297.7
20
71.457
30
0
11
297.7
21
51.983
31
0
0
LINE
8
1
62
1
10
297.7
20
51.983
30
0
11
292.1
21
51.983
31
0
0
LINE
8
1
62
1
10
292.1
20
51.983
30
0
11
292.1
21
32.51
31
0
0
LINE
8
1
62
1
10
292.1
20
32.51
30
0
11
297.7
21
32.51
31
0
0
LINE
8
1
62
1
10
297.7
20
32.51
30
0
11
297.7
21
13.037
31
0
0
LINE
8
1
62
1
10
297.7
20
13.037
30
0
11
292.1
21
13.037
31
0
0
LINE
8
1
62
1
10
292.1
20
13.037
30
0
11
292.1
21
-6.437
31
0
0
LINE
8
1
62
1
10
292.1
20
-6.437
30
0
11
297.7
21
-6.437
31
0
0
LINE
8
1
62
1
10
297.7
20
-6.437
30
0
11
297.7
21
-25.91
31
0
0
LINE
8
1
62
1
10
297.7
20
-25.91
30
0
11
292.1
21
-25.91
31
0
0
LINE
8
1
62
1
10
292.1
20
-25.91
30
0
11
292.1
21
-45.383
31
0
0
LINE
8
1
62
1
10
292.1
20
-45.383
30
0
11
297.7
21
-45.383
31
0
0
LINE
8
1
62
1
10
297.7
20
-45.383
30
0
11
297.7
21
-64.857
31
0
0
LINE
8
1
62
1
10
297.7
20
-64.857
30
0
11
292.1
21
-64.857
31
0
0
LINE
8
1
62
1
10
292.1
20
-64.857
30
0
11
292.1
21
-84.33
31
0
0
LINE
8
1
62
1
10
292.1
20
-84.33
30
0
11
297.7
21
-84.33
31
0
0
LINE
8
1
62
1
10
297.7
20
-84.33
30
0
11
297.7
21
-103.803
31
0
0
LINE
8
1
62
1
10
297.7
20
-103.803
30
0
11
292.1
21
-103.803
31
0
0
LINE
8
1
62
1
10
292.1
20
-103.803
30
0
11
292.1
21
-123.277
31
0
0
LINE
8
1
62
1
10
292.1
20
-123.277
30
0
11
297.7
21
-123.277
31
0
0
LINE
8
1
62
1
10
297.7
20
-123.277
30
0
11
297.7
21
-142.75
31
0
0
LINE
8
1
62
1
10
297.7
20
-142.75
30
0
11
268.732
21
-142.75
31
0
0
LINE
8
1
62
1
10
268.732
20
-142.75
30
0
11
268.732
21
-148.35
31
0
0
LINE
8
1
62
1
10
268.732
20
-148.35
30
0
11
245.364
21
-148.35
31
0
0
LINE
8
1
62
1
10
245.364
20
-148.35
30
0
11
245.364
21
-142.75
31
0
0
LINE
8
1
62
1
10
245.364
20
-142.75
30
0
11
221.996
21
-142.75
31
0
0
LINE
8
1
62
1
10
221.996
20
-142.75
30
0
11
221.996
21
-148.35
31
0
0
LINE
8
1
62
1
10
221.996
20
-148.35
30
0
11
198.628
21
-148.35
31
0
0
LINE
8
1
62
1
10
198.628
20
-148.35
30
0
11
198.628
21
-142.75
31
0
0
LINE
8
1
62
1
10
198.628
20
-142.75
30
0
11
175.26
21
-142.75
31
0
0
LINE
8
1
62
1
10
175.26
20
-142.75
30
0
11
175.26
21
-148.35
31
0
0
LINE
8
1
62
1
10
175.26
20
-148.35
30
0
11
151.892
21
-148.35
31
0
0
LINE
8
1
62
1
10
151.892
20
-148.35
30
0
11
151.892
21
-142.75
31
0
0
LINE
8
1
62
1
10
151.892
20
-142.75
30
0
11
128.524
21
-142.75
31
0
0
LINE
8
1
62
1
10
128.524
20
-142.75
30
0
11
128.524
21
-148.35
31
0
0
LINE
8
1
62
1
10
128.524
20
-148.35
30
0
11
105.156
21
-148.35
31
0
0
LINE
8
1
62
1
10
105.156
20
-148.35
30
0
11
105.156
21
-142.75
31
0
0
LINE
8
1
62
1
10
105.156
20
-142.75
30
0
11
81.788
21
-142.75
31
0
0
LINE
8
1
62
1
10
81.788
20
-142.75
30
0
11
81.788
21
-148.35
31
0
0
LINE
8
1
62
1
10
81.788
20
-148.35
30
0
11
58.42
21
-148.35
31
0
0
LINE
8
1
62
1
10
58.42
20
-148.35
30
0
11
58.42
21
-142.75
31
0
0
LINE
8
1
62
2
10
58.42
20
-142.75
30
0
11
58.42
21
-142.75
31
0
0
LINE
8
1
62
3
10
58.42
20
-142.75
30
0
11
58.42
21
-142.75
31
15
0
ENDSEC
0
EOF
