999
Generated by Autodesk CAM - http://cam.autodesk.com
0
SECTION
2
HEADER
9
$ACADVER
1
AC1006
9
$ANGBASE
50
0
9
$ANGDIR
70
0
0
ENDSEC
0
SECTION
2
BLOCKS
0
ENDSEC
9
$EXTMIN
10
-148.35
20
-297.7
30
0
9
$EXTMAX
10
149.35
20
297.7
30
15
0
SECTION
2
ENTITIES
0
LINE
8
1
62
3
10
-148.35
20
-128.524
30
15
11
-148.35
21
-128.524
31
15
0
LINE
8
1
62
3
10
-148.35
20
-128.524
30
15
11
-148.35
21
-128.524
31
0
0
LINE
8
1
62
2
10
-148.35
20
-128.524
30
0
11
-148.35
21
-128.524
31
0
0
LINE
8
1
62
1
10
-148.35
20
-128.524
30
0
11
-148.35
21
-105.156
31
0
0
LINE
8
1
62
1
10
-148.35
20
-105.156
30
0
11
-142.75
21
-105.156
31
0
0
LINE
8
1
62
1
10
-142.75
20
-105.156
30
0
11
-142.75
21
-81.788
31
0
0
LINE
8
1
62
1
10
-142.75
20
-81.788
30
0
11
-148.35
21
-81.788
31
0
0
LINE
8
1
62
1
10
-148.35
20
-81.788
30
0
11
-148.35
21
-58.42
31
0
0
LINE
8
1
62
1
10
-148.35
20
-58.42
30
0
11
-142.75
21
-58.42
31
0
0
LINE
8
1
62
1
10
-142.75
20
-58.42
30
0
11
-142.75
21
-35.052
31
0
0
LINE
8
1
62
1
10
-142.75
20
-35.052
30
0
11
-148.35
21
-35.052
31
0
0
LINE
8
1
62
1
10
-148.35
20
-35.052
30
0
11
-148.35
21
-11.684
31
0
0
LINE
8
1
62
1
10
-148.35
20
-11.684
30
0
11
-142.75
21
-11.684
31
0
0
LINE
8
1
62
1
10
-142.75
20
-11.684
30
0
11
-142.75
21
11.684
31
0
0
LINE
8
1
62
1
10
-142.75
20
11.684
30
0
11
-148.35
21
11.684
31
0
0
LINE
8
1
62
1
10
-148.35
20
11.684
30
0
11
-148.35
21
35.052
31
0
0
LINE
8
1
62
1
10
-148.35
20
35.052
30
0
11
-142.75
21
35.052
31
0
0
LINE
8
1
62
1
10
-142.75
20
35.052
30
0
11
-142.75
21
58.42
31
0
0
LINE
8
1
62
1
10
-142.75
20
58.42
30
0
11
-148.35
21
58.42
31
0
0
LINE
8
1
62
1
10
-148.35
20
58.42
30
0
11
-148.35
21
81.788
31
0
0
LINE
8
1
62
1
10
-148.35
20
81.788
30
0
11
-142.75
21
81.788
31
0
0
LINE
8
1
62
1
10
-142.75
20
81.788
30
0
11
-142.75
21
105.156
31
0
0
LINE
8
1
62
1
10
-142.75
20
105.156
30
0
11
-148.35
21
105.156
31
0
0
LINE
8
1
62
1
10
-148.35
20
105.156
30
0
11
-148.35
21
128.524
31
0
0
LINE
8
1
62
1
10
-148.35
20
128.524
30
0
11
-142.75
21
128.524
31
0
0
LINE
8
1
62
1
10
-142.75
20
128.524
30
0
11
-142.75
21
151.892
31
0
0
LINE
8
1
62
1
10
-142.75
20
151.892
30
0
11
-148.35
21
151.892
31
0
0
LINE
8
1
62
1
10
-148.35
20
151.892
30
0
11
-148.35
21
175.26
31
0
0
LINE
8
1
62
1
10
-148.35
20
175.26
30
0
11
-142.75
21
175.26
31
0
0
LINE
8
1
62
1
10
-142.75
20
175.26
30
0
11
-142.75
21
198.628
31
0
0
LINE
8
1
62
1
10
-142.75
20
198.628
30
0
11
-148.35
21
198.628
31
0
0
LINE
8
1
62
1
10
-148.35
20
198.628
30
0
11
-148.35
21
221.996
31
0
0
LINE
8
1
62
1
10
-148.35
20
221.996
30
0
11
-142.75
21
221.996
31
0
0
LINE
8
1
62
1
10
-142.75
20
221.996
30
0
11
-142.75
21
245.364
31
0
0
LINE
8
1
62
1
10
-142.75
20
245.364
30
0
11
-148.35
21
245.364
31
0
0
LINE
8
1
62
1
10
-148.35
20
245.364
30
0
11
-148.35
21
268.732
31
0
0
LINE
8
1
62
1
10
-148.35
20
268.732
30
0
11
-142.75
21
268.732
31
0
0
LINE
8
1
62
1
10
-142.75
20
268.732
30
0
11
-142.75
21
292.1
31
0
0
LINE
8
1
62
1
10
-142.75
20
292.1
30
0
11
-123.277
21
292.1
31
0
0
LINE
8
1
62
1
10
-123.277
20
292.1
30
0
11
-123.277
21
297.7
31
0
0
LINE
8
1
62
1
10
-123.277
20
297.7
30
0
11
-103.803
21
297.7
31
0
0
LINE
8
1
62
1
10
-103.803
20
297.7
30
0
11
-103.803
21
292.1
31
0
0
LINE
8
1
62
1
10
-103.803
20
292.1
30
0
11
-84.33
21
292.1
31
0
0
LINE
8
1
62
1
10
-84.33
20
292.1
30
0
11
-84.33
21
297.7
31
0
0
LINE
8
1
62
1
10
-84.33
20
297.7
30
0
11
-64.857
21
297.7
31
0
0
LINE
8
1
62
1
10
-64.857
20
297.7
30
0
11
-64.857
21
292.1
31
0
0
LINE
8
1
62
1
10
-64.857
20
292.1
30
0
11
-45.383
21
292.1
31
0
0
LINE
8
1
62
1
10
-45.383
20
292.1
30
0
11
-45.383
21
297.7
31
0
0
LINE
8
1
62
1
10
-45.383
20
297.7
30
0
11
-25.91
21
297.7
31
0
0
LINE
8
1
62
1
10
-25.91
20
297.7
30
0
11
-25.91
21
292.1
31
0
0
LINE
8
1
62
1
10
-25.91
20
292.1
30
0
11
-6.437
21
292.1
31
0
0
LINE
8
1
62
1
10
-6.437
20
292.1
30
0
11
-6.437
21
297.7
31
0
0
LINE
8
1
62
1
10
-6.437
20
297.7
30
0
11
13.037
21
297.7
31
0
0
LINE
8
1
62
1
10
13.037
20
297.7
30
0
11
13.037
21
292.1
31
0
0
LINE
8
1
62
1
10
13.037
20
292.1
30
0
11
32.51
21
292.1
31
0
0
LINE
8
1
62
1
10
32.51
20
292.1
30
0
11
32.51
21
297.7
31
0
0
LINE
8
1
62
1
10
32.51
20
297.7
30
0
11
51.983
21
297.7
31
0
0
LINE
8
1
62
1
10
51.983
20
297.7
30
0
11
51.983
21
292.1
31
0
0
LINE
8
1
62
1
10
51.983
20
292.1
30
0
11
71.457
21
292.1
31
0
0
LINE
8
1
62
1
10
71.457
20
292.1
30
0
11
71.457
21
297.7
31
0
0
LINE
8
1
62
1
10
71.457
20
297.7
30
0
11
90.93
21
297.7
31
0
0
LINE
8
1
62
1
10
90.93
20
297.7
30
0
11
90.93
21
292.1
31
0
0
LINE
8
1
62
1
10
90.93
20
292.1
30
0
11
110.403
21
292.1
31
0
0
LINE
8
1
62
1
10
110.403
20
292.1
30
0
11
110.403
21
297.7
31
0
0
LINE
8
1
62
1
10
110.403
20
297.7
30
0
11
129.877
21
297.7
31
0
0
LINE
8
1
62
1
10
129.877
20
297.7
30
0
11
129.877
21
292.1
31
0
0
LINE
8
1
62
1
10
129.877
20
292.1
30
0
11
149.35
21
292.1
31
0
0
LINE
8
1
62
1
10
149.35
20
292.1
30
0
11
149.35
21
-292.1
31
0
0
LINE
8
1
62
1
10
149.35
20
-292.1
30
0
11
129.877
21
-292.1
31
0
0
LINE
8
1
62
1
10
129.877
20
-292.1
30
0
11
129.877
21
-297.7
31
0
0
LINE
8
1
62
1
10
129.877
20
-297.7
30
0
11
110.403
21
-297.7
31
0
0
LINE
8
1
62
1
10
110.403
20
-297.7
30
0
11
110.403
21
-292.1
31
0
0
LINE
8
1
62
1
10
110.403
20
-292.1
30
0
11
90.93
21
-292.1
31
0
0
LINE
8
1
62
1
10
90.93
20
-292.1
30
0
11
90.93
21
-297.7
31
0
0
LINE
8
1
62
1
10
90.93
20
-297.7
30
0
11
71.457
21
-297.7
31
0
0
LINE
8
1
62
1
10
71.457
20
-297.7
30
0
11
71.457
21
-292.1
31
0
0
LINE
8
1
62
1
10
71.457
20
-292.1
30
0
11
51.983
21
-292.1
31
0
0
LINE
8
1
62
1
10
51.983
20
-292.1
30
0
11
51.983
21
-297.7
31
0
0
LINE
8
1
62
1
10
51.983
20
-297.7
30
0
11
32.51
21
-297.7
31
0
0
LINE
8
1
62
1
10
32.51
20
-297.7
30
0
11
32.51
21
-292.1
31
0
0
LINE
8
1
62
1
10
32.51
20
-292.1
30
0
11
13.037
21
-292.1
31
0
0
LINE
8
1
62
1
10
13.037
20
-292.1
30
0
11
13.037
21
-297.7
31
0
0
LINE
8
1
62
1
10
13.037
20
-297.7
30
0
11
-6.437
21
-297.7
31
0
0
LINE
8
1
62
1
10
-6.437
20
-297.7
30
0
11
-6.437
21
-292.1
31
0
0
LINE
8
1
62
1
10
-6.437
20
-292.1
30
0
11
-25.91
21
-292.1
31
0
0
LINE
8
1
62
1
10
-25.91
20
-292.1
30
0
11
-25.91
21
-297.7
31
0
0
LINE
8
1
62
1
10
-25.91
20
-297.7
30
0
11
-45.383
21
-297.7
31
0
0
LINE
8
1
62
1
10
-45.383
20
-297.7
30
0
11
-45.383
21
-292.1
31
0
0
LINE
8
1
62
1
10
-45.383
20
-292.1
30
0
11
-64.857
21
-292.1
31
0
0
LINE
8
1
62
1
10
-64.857
20
-292.1
30
0
11
-64.857
21
-297.7
31
0
0
LINE
8
1
62
1
10
-64.857
20
-297.7
30
0
11
-84.33
21
-297.7
31
0
0
LINE
8
1
62
1
10
-84.33
20
-297.7
30
0
11
-84.33
21
-292.1
31
0
0
LINE
8
1
62
1
10
-84.33
20
-292.1
30
0
11
-103.803
21
-292.1
31
0
0
LINE
8
1
62
1
10
-103.803
20
-292.1
30
0
11
-103.803
21
-297.7
31
0
0
LINE
8
1
62
1
10
-103.803
20
-297.7
30
0
11
-123.277
21
-297.7
31
0
0
LINE
8
1
62
1
10
-123.277
20
-297.7
30
0
11
-123.277
21
-292.1
31
0
0
LINE
8
1
62
1
10
-123.277
20
-292.1
30
0
11
-142.75
21
-292.1
31
0
0
LINE
8
1
62
1
10
-142.75
20
-292.1
30
0
11
-142.75
21
-268.732
31
0
0
LINE
8
1
62
1
10
-142.75
20
-268.732
30
0
11
-148.35
21
-268.732
31
0
0
LINE
8
1
62
1
10
-148.35
20
-268.732
30
0
11
-148.35
21
-245.364
31
0
0
LINE
8
1
62
1
10
-148.35
20
-245.364
30
0
11
-142.75
21
-245.364
31
0
0
LINE
8
1
62
1
10
-142.75
20
-245.364
30
0
11
-142.75
21
-221.996
31
0
0
LINE
8
1
62
1
10
-142.75
20
-221.996
30
0
11
-148.35
21
-221.996
31
0
0
LINE
8
1
62
1
10
-148.35
20
-221.996
30
0
11
-148.35
21
-198.628
31
0
0
LINE
8
1
62
1
10
-148.35
20
-198.628
30
0
11
-142.75
21
-198.628
31
0
0
LINE
8
1
62
1
10
-142.75
20
-198.628
30
0
11
-142.75
21
-175.26
31
0
0
LINE
8
1
62
1
10
-142.75
20
-175.26
30
0
11
-148.35
21
-175.26
31
0
0
LINE
8
1
62
1
10
-148.35
20
-175.26
30
0
11
-148.35
21
-151.892
31
0
0
LINE
8
1
62
1
10
-148.35
20
-151.892
30
0
11
-142.75
21
-151.892
31
0
0
LINE
8
1
62
1
10
-142.75
20
-151.892
30
0
11
-142.75
21
-128.524
31
0
0
LINE
8
1
62
1
10
-142.75
20
-128.524
30
0
11
-148.35
21
-128.524
31
0
0
LINE
8
1
62
2
10
-148.35
20
-128.524
30
0
11
-148.35
21
-128.524
31
0
0
LINE
8
1
62
3
10
-148.35
20
-128.524
30
0
11
-148.35
21
-128.524
31
15
0
ENDSEC
0
EOF
